<?xml version="1.0" standalone="no"?>
<!DOCTYPE svg PUBLIC "-//W3C//DTD SVG 1.1//EN" "http://www.w3.org/Graphics/SVG/1.1/DTD/svg11.dtd" >
<svg>
<metadata>
Created by FontForge 20110222 at Sat May 11 06:04:38 2013
 By Orthosie Webhosting
Copyright (c) 2012, Agustina Mingote (agustinamingote@gmail.com), with Reserved Font Names "Gudea"
</metadata>
<defs>
<font id="GudeaItalic" horiz-adv-x="464" >
  <font-face 
    font-family="GudeaItalic"
    font-weight="400"
    font-style="italic"
    font-stretch="normal"
    units-per-em="1000"
    panose-1="2 0 0 0 0 0 0 0 0 0"
    ascent="800"
    descent="-200"
    x-height="500"
    cap-height="700"
    bbox="-77 -239 924 972"
    underline-thickness="50"
    underline-position="-50"
    unicode-range="U+000C-FB02"
  />
<missing-glyph horiz-adv-x="190" 
 />
    <glyph glyph-name=".notdef" horiz-adv-x="190" 
 />
    <glyph glyph-name=".null" horiz-adv-x="0" 
 />
    <glyph glyph-name="nonmarkingreturn" horiz-adv-x="333" 
 />
    <glyph glyph-name="flecha0" horiz-adv-x="417" 
d="M290 -62l-253 336l347 334z" />
    <glyph glyph-name="space" unicode=" " horiz-adv-x="225" 
 />
    <glyph glyph-name="exclam" unicode="!" horiz-adv-x="240" 
d="M156 190h-67l71 511h67zM128 0h-67l13 93h67z" />
    <glyph glyph-name="quotedbl" unicode="&#x22;" horiz-adv-x="340" 
d="M311 442h-68l37 259h68zM138 442h-68l37 259h68z" />
    <glyph glyph-name="numbersign" unicode="#" horiz-adv-x="557" 
d="M569 465h-94l-47 -209h88l-9 -65h-95l-44 -191h-68l45 191h-143l-45 -191h-69l45 191h-104l9 65h110l49 209h-107l9 65h112l40 170h68l-40 -170h143l41 170h67l-38 -170h86zM409 465h-143l-50 -209h143z" />
    <glyph glyph-name="dollar" unicode="$" horiz-adv-x="457" 
d="M363 589q-48 13 -89 13t-69 -29.5t-28 -71.5t24.5 -65.5t59 -38.5t69 -32t59 -47t24.5 -74q0 -82 -49.5 -142.5t-132.5 -69.5l-13 -92h-59q12 89 13 90q-70 5 -131 49l28 50q66 -37 129.5 -37t105 34.5t41.5 94.5q0 62 -84 99q-35 16 -70.5 33t-60 48t-24.5 76
q0 75 44.5 127.5t109.5 55.5l12 87h59l-12 -87q51 -6 109 -27l-21 -60q-407 -573 -44 16z" />
    <glyph glyph-name="percent" unicode="%" horiz-adv-x="663" 
d="M609 688l-464 -687h-70l464 687h70zM472 44q42 0 63.5 50t21.5 112q0 80 -50 80q-31 -3 -51 -34q-33 -50 -33 -129t49 -79zM513 336q99 0 99 -122q0 -96 -36.5 -158t-112.5 -62q-95 0 -95 120q0 123 60 186q35 36 85 36zM225 646q-24 0 -42 -18t-27 -46q-15 -51 -15 -101
q0 -77 49 -77q24 0 42 17.5t26 44.5q17 54 17 99q0 81 -50 81zM231 696q99 0 99 -122q0 -92 -36 -156t-113 -64q-95 0 -95 120q0 123 60 186q35 36 85 36z" />
    <glyph glyph-name="ampersand" unicode="&#x26;" horiz-adv-x="680" 
d="M238 -7q-93 0 -142 44t-49 121.5t42 127.5t128 88q-44 47 -65 81t-21 68q0 86 57.5 136.5t136 50.5t117.5 -36.5t39 -101t-38.5 -112t-123.5 -95.5l129 -164q37 63 52 160h65q-23 -115 -48 -166q-9 -18 -26 -48l109 -146h-90l-62 89q-36 -41 -94.5 -69t-115.5 -28z
M119 166q0 -49 34 -78.5t87.5 -29.5t101 24.5t71.5 55.5l-156 196q-138 -65 -138 -168zM385.5 626q-25.5 19 -68 19t-77 -29t-34.5 -76q0 -29 13 -49t18 -27t22.5 -28.5t21.5 -26.5q130 70 130 161q0 37 -25.5 56z" />
    <glyph glyph-name="quotesingle" unicode="'" horiz-adv-x="167" 
d="M133 367h-67l37 259h67z" />
    <glyph glyph-name="parenleft" unicode="(" horiz-adv-x="254" 
d="M150 179q0 -150 50 -297l-64 -12q-55 143 -55 305q0 310 185 589l58 -13q-174 -277 -174 -572z" />
    <glyph glyph-name="parenright" unicode=")" horiz-adv-x="253" 
d="M152 455q0 150 -50 297l64 12q55 -143 55 -305q0 -310 -185 -589l-58 13q174 277 174 572z" />
    <glyph glyph-name="asterisk" unicode="*" horiz-adv-x="387" 
d="M375 490l-36 -58l-96 81l-8 -143h-59l29 143l-118 -81l-21 53l126 63l-107 63l39 55l91 -82l11 143h59l-32 -143l118 81l20 -57l-125 -58z" />
    <glyph glyph-name="plus" unicode="+" horiz-adv-x="422" 
d="M411 262h-155l-27 -193h-68l27 193h-147l10 65h147l28 200h68l-28 -200h155z" />
    <glyph glyph-name="comma" unicode="," horiz-adv-x="219" 
d="M182 87l-139 -259l-41 16l115 267z" />
    <glyph glyph-name="hyphen" unicode="-" horiz-adv-x="259" 
d="M230 254h-171l10 75h171z" />
    <glyph glyph-name="period" unicode="." horiz-adv-x="165" 
d="M112 0h-67l15 106h67z" />
    <glyph glyph-name="slash" unicode="/" horiz-adv-x="442" 
d="M495 800l-425 -945h-71l425 945h71z" />
    <glyph glyph-name="zero" unicode="0" horiz-adv-x="522" 
d="M512 482q0 -91 -14 -173.5t-34.5 -131.5t-50 -91.5t-77 -67t-106.5 -24.5q-171 0 -171 229q0 130 23 220t52 142.5t82.5 88.5t124.5 36q171 0 171 -228zM245 59q41 0 75 27.5t55.5 70.5t36.5 98q27 99 27 210q0 180 -112 180q-50 0 -89.5 -40.5t-61.5 -104.5
q-44 -126 -44 -260q0 -181 113 -181z" />
    <glyph glyph-name="one" unicode="1" horiz-adv-x="467" 
d="M12 0l9 65h176l79 561l-171 -111l-25 56l206 129h67l-89 -635h138l-9 -65h-381z" />
    <glyph glyph-name="two" unicode="2" horiz-adv-x="472" 
d="M392 555q0 90 -104 90q-64 0 -150 -21l-5 58q73 28 160 28t130.5 -36.5t43.5 -101.5q0 -85 -57 -182q-41 -70 -160 -194q-38 -39 -130 -131h287l-10 -65h-370l10 72q28 29 77 79t71.5 73.5t59 62.5t53 60.5t39 53t31.5 53.5q24 56 24 101z" />
    <glyph glyph-name="three" unicode="3" horiz-adv-x="475" 
d="M238 391q62 0 104 46.5t42 116.5q0 91 -101 91q-30 0 -67.5 -10.5t-82.5 -30.5l-5 58q78 48 162.5 48t126 -38t41.5 -110t-39 -130.5t-109 -72.5q55 -5 88 -40t33 -95q0 -103 -65.5 -166.5t-183.5 -63.5q-44 0 -83 12t-57 24l-17 11l30 56q69 -38 140.5 -38t116 42
t44.5 103q0 122 -127 122h-85l9 65h85z" />
    <glyph glyph-name="four" unicode="4" horiz-adv-x="486" 
d="M273 0l18 131h-284l7 49l265 520h72l-257 -504h206l27 186h65l-27 -186h74l-9 -65h-74l-18 -131h-65z" />
    <glyph glyph-name="five" unicode="5" horiz-adv-x="503" 
d="M67 100q76 -40 151.5 -40t123 54t47.5 132q0 114 -154 114l-119 1l69 339h321l-13 -65h-259l-39 -211q28 1 56 1q98 0 155 -42.5t57 -120.5q0 -112 -69 -190t-188 -78q-44 0 -86 13t-62 27l-19 13z" />
    <glyph glyph-name="six" unicode="6" horiz-adv-x="518" 
d="M163 386q81 37 155 37t119.5 -40.5t45.5 -118.5q0 -115 -64 -192.5t-172 -77.5q-178 0 -178 214q0 192 71 340q36 74 97.5 118t141.5 44q35 0 68 -8t63 -25l-25 -60q-59 27 -124 27q-146 0 -198 -258zM261 59q47 0 82 31q67 59 67 158q0 110 -115 110q-68 0 -145 -47
q-7 -48 -7 -93q0 -159 118 -159z" />
    <glyph glyph-name="seven" unicode="7" horiz-adv-x="456" 
d="M87 625l10 75h405l-10 -75l-362 -625h-79l361 625h-325z" />
    <glyph glyph-name="eight" unicode="8" horiz-adv-x="518" 
d="M467.5 669.5q43.5 -40.5 43.5 -102t-34.5 -121.5t-89.5 -102q91 -54 91 -127q0 -100 -71 -161.5t-170 -61.5t-143 44.5t-44 112.5t39.5 122.5t105.5 90.5q-77 48 -77 126q0 96 63.5 158t164.5 62q78 0 121.5 -40.5zM152 87q30 -30 91.5 -30t111 40t49.5 102
q0 45 -36.5 72.5t-114.5 60.5q-54 -25 -92.5 -68.5t-38.5 -95t30 -81.5zM406.5 451.5q30.5 45.5 30.5 92.5t-27.5 74t-79.5 27t-96 -37t-44 -89.5t44.5 -89.5t97.5 -55q44 32 74.5 77.5z" />
    <glyph glyph-name="nine" unicode="9" horiz-adv-x="501" 
d="M401 318q-68 -37 -147 -37t-123 40.5t-44 117.5q0 116 62.5 193.5t169.5 77.5q90 0 133 -56.5t43 -151.5t-16.5 -180t-51 -161t-96.5 -121.5t-144 -45.5q-35 0 -68 8t-63 25l24 60q59 -27 124 -27q147 0 197 258zM304 645q-63 0 -103 -57.5t-40 -133.5q0 -108 109 -108
q66 0 145 46v4q7 46 7 91q0 158 -118 158z" />
    <glyph glyph-name="colon" unicode=":" horiz-adv-x="195" 
d="M113 0h-67l15 106h67zM168 394h-67l15 106h67z" />
    <glyph glyph-name="semicolon" unicode=";" horiz-adv-x="249" 
d="M228 394h-68l15 106h68zM185 89l-138 -259l-42 16l119 267z" />
    <glyph glyph-name="less" unicode="&#x3c;" horiz-adv-x="475" 
d="M392 45l-321 224l8 57l384 225l-11 -80l-312 -173l263 -175z" />
    <glyph glyph-name="equal" unicode="=" horiz-adv-x="522" 
d="M484 361h-387l9 65h387zM456 163h-387l9 65h387z" />
    <glyph glyph-name="greater" unicode="&#x3e;" horiz-adv-x="475" 
d="M437 270l-384 -224l11 77l311 175l-262 173l11 80l320 -225z" />
    <glyph glyph-name="question" unicode="?" horiz-adv-x="417" 
d="M381 676q37 -34 37 -86.5t-18 -89.5t-44.5 -63.5t-53.5 -52.5q-69 -63 -78 -127l-9 -63h-66l8 58q13 86 77 146q26 25 51 49q59 57 59 123q0 74 -88 74q-59 0 -112 -19l-2 58q76 27 139 27t100 -34zM187 0h-67l13 98h67z" />
    <glyph glyph-name="at" unicode="@" horiz-adv-x="817" 
d="M474 451q-48 0 -88 -45.5t-59.5 -103t-19.5 -105.5q0 -62 51 -62q31 0 56 17t72 64l61 193q-24 33 -48 39q-11 3 -25 3zM338 76q-44 0 -66 29t-22 88t24.5 133t79 131.5t124.5 57.5q34 0 50 -10.5t22 -15.5t13.5 -14t9.5 -11l20 40h41l-117 -369q53 1 94.5 29t64.5 73
q47 89 47 195q0 212 -225 212q-166 0 -261.5 -134t-95.5 -348q0 -113 46 -166t146 -53h156l-6 -54q-78 -8 -163 -8q-249 0 -249 264q0 182 64 319q34 73 83.5 127t124 86t165.5 32q279 0 279 -262q0 -164 -76 -266t-203 -102q-24 0 -36 2l2 66q-71 -71 -136 -71z" />
    <glyph glyph-name="A" unicode="A" horiz-adv-x="521" 
d="M484 0h-75l-32 221h-226l-93 -221h-70l304 700h82zM370 286l-48 338l-145 -338h193z" />
    <glyph glyph-name="B" unicode="B" horiz-adv-x="528" 
d="M335 700q85 0 127.5 -37t42.5 -105.5t-40 -120t-100 -58.5q58 -7 89.5 -46.5t31.5 -96.5q0 -103 -68.5 -169.5t-186.5 -66.5h-174l98 700h180zM261 65q65 0 109.5 48t44.5 106.5t-33.5 91t-100.5 32.5h-106l-39 -278h125zM290 407q58 0 101 39t43 99q0 90 -103 90h-115
l-32 -228h106z" />
    <glyph glyph-name="C" unicode="C" horiz-adv-x="526" 
d="M286 -6q-110 0 -167 71t-57 197q0 191 90.5 319t242.5 128q72 0 138 -29l-24 -62q-52 26 -115.5 26t-106.5 -24.5t-70 -63t-45 -88.5q-34 -91 -34 -192t39.5 -159t119 -58t155.5 44l10 -57q-86 -52 -176 -52z" />
    <glyph glyph-name="D" unicode="D" horiz-adv-x="583" 
d="M570 434q0 -79 -26.5 -156t-74 -139t-121 -100.5t-159.5 -38.5h-132l98 700h160q119 0 187 -73t68 -193zM206 65q84 0 151.5 57.5t101 140t33.5 173.5t-52.5 145t-130.5 54h-90l-80 -570h67z" />
    <glyph glyph-name="E" unicode="E" horiz-adv-x="488" 
d="M396 0h-339l98 700h339l-9 -65h-272l-31 -222h250l-9 -67h-250l-40 -281h272z" />
    <glyph glyph-name="F" unicode="F" horiz-adv-x="459" 
d="M495 700l-9 -65h-273l-31 -222h251l-9 -67h-251l-49 -346h-67l98 700h340z" />
    <glyph glyph-name="G" unicode="G" horiz-adv-x="582" 
d="M300 -6q-114 0 -177 74.5t-63 204.5q0 168 82 298q39 63 104.5 101t147.5 38t161 -36l-24 -62q-29 14 -77 23.5t-76 9.5q-62 0 -111 -35t-77 -90q-55 -111 -55 -222t44.5 -175t114 -64t129.5 25l30 206h-132l9 65h199l-43 -307q-92 -54 -186 -54z" />
    <glyph glyph-name="H" unicode="H" horiz-adv-x="598" 
d="M491 0h-68l46 331h-298l-46 -331h-68l98 700h68l-42 -304h298l42 304h68z" />
    <glyph glyph-name="I" unicode="I" horiz-adv-x="231" 
d="M124 0h-67l98 700h67z" />
    <glyph glyph-name="J" unicode="J" horiz-adv-x="308" 
d="M65 -7q-48 0 -87 11l9 63q42 -9 77 -9q79 0 102 170l58 413h-131l9 59h198l-69 -489q-31 -218 -166 -218z" />
    <glyph glyph-name="K" unicode="K" horiz-adv-x="516" 
d="M475 0h-85l-130 383l-95 -95l-40 -288h-68l98 700h67l-44 -316l307 316h82l-254 -266z" />
    <glyph glyph-name="L" unicode="L" horiz-adv-x="426" 
d="M394 0h-337l98 700h67l-89 -635h270z" />
    <glyph glyph-name="M" unicode="M" horiz-adv-x="663" 
d="M588 0h-68l81 574l-257 -390l-24 1l-148 388l-80 -573h-67l98 700h76l152 -385l267 385h68z" />
    <glyph glyph-name="N" unicode="N" horiz-adv-x="611" 
d="M504 -1h-74l-224 561l-79 -560h-70l98 700h70l229 -582l81 582h67z" />
    <glyph glyph-name="O" unicode="O" horiz-adv-x="584" 
d="M265 -5q-103 0 -154 72.5t-51 193.5q0 163 70 299q35 67 96 108.5t140 41.5q104 0 155.5 -72t51.5 -193q0 -162 -71 -299q-36 -68 -97.5 -109.5t-139.5 -41.5zM464 583.5q-36 61.5 -100.5 61.5t-110.5 -38t-71 -97q-48 -117 -48 -224.5t35 -166t99.5 -58.5t110 38
t71.5 96q50 115 50 221t-36 167.5z" />
    <glyph glyph-name="P" unicode="P" horiz-adv-x="487" 
d="M257 294h-92l-41 -294h-67l98 700h150q197 0 197 -146q0 -121 -65 -190.5t-180 -69.5zM295 636h-82l-39 -278h60q199 0 199 173q0 54 -33 79.5t-105 25.5z" />
    <glyph glyph-name="Q" unicode="Q" horiz-adv-x="586" 
d="M266 -7q-104 0 -155 74t-51 196q0 154 68 291q35 69 97 112.5t142 43.5q104 0 156 -72t52 -192q0 -202 -105 -350l74 -101l-51 -49l-72 101q-68 -54 -155 -54zM501 428q0 94 -36 156t-107 62q-58 0 -103.5 -37.5t-70.5 -96.5q-49 -119 -49 -226.5t35 -167t100.5 -59.5
t112.5 38l-66 92l52 49l61 -89q71 112 71 279z" />
    <glyph glyph-name="R" unicode="R" horiz-adv-x="543" 
d="M226 328h-56l-46 -328h-67l98 700h182q162 0 162 -141q0 -71 -43 -134t-107 -72q39 -11 53.5 -31.5t30.5 -87.5l56 -234h-71l-56 224q-16 64 -43.5 84t-92.5 20zM324 636h-111l-34 -244h102q63 0 102.5 45t39.5 99q0 100 -99 100z" />
    <glyph glyph-name="S" unicode="S" horiz-adv-x="496" 
d="M445 608q-80 32 -138 32t-90.5 -34.5t-32.5 -81.5t27.5 -74t66.5 -41.5t78 -32t66.5 -54.5t27.5 -95q0 -97 -67.5 -165t-172.5 -68q-52 0 -100 16.5t-78 38.5l30 57q78 -42 148.5 -42t118 39t47.5 103q0 44 -27.5 72.5t-66 44.5t-77.5 34t-66.5 55.5t-27.5 95.5
q0 86 55 144t149 58q72 0 154 -35z" />
    <glyph glyph-name="T" unicode="T" horiz-adv-x="454" 
d="M170 0l89 633h-177l9 67h418l-9 -67h-175l-89 -633h-66z" />
    <glyph glyph-name="U" unicode="U" horiz-adv-x="598" 
d="M273 -6q-185 0 -185 196q0 28 5 68l62 442h68l-63 -454q-4 -24 -4 -48q0 -67 32.5 -103t97.5 -36t111.5 48.5t59.5 138.5l63 454h69l-62 -442q-18 -131 -83 -197.5t-171 -66.5z" />
    <glyph glyph-name="V" unicode="V" horiz-adv-x="492" 
d="M553 700l-292 -700h-95l-81 700h76l67 -615l251 615h74z" />
    <glyph glyph-name="W" unicode="W" horiz-adv-x="675" 
d="M737 699l-248 -699h-78l-35 406l-169 -406h-74l-49 699h78l23 -614l180 425h51l50 -425l200 614h71z" />
    <glyph glyph-name="X" unicode="X" horiz-adv-x="526" 
d="M483 0h-83l-116 315l-209 -315h-81l260 368l-144 332h86l105 -276l189 276h81l-239 -332z" />
    <glyph glyph-name="Y" unicode="Y" horiz-adv-x="496" 
d="M558 700l-261 -385l-44 -315h-68l44 315l-145 385h75l114 -324l212 324h73z" />
    <glyph glyph-name="Z" unicode="Z" horiz-adv-x="457" 
d="M406 0h-395l9 62l368 573h-289l9 65h368l-8 -57l-366 -577h313z" />
    <glyph glyph-name="bracketleft" unicode="[" horiz-adv-x="306" 
d="M220 -200h-189l141 1000h187l-9 -65h-119l-123 -871h121z" />
    <glyph glyph-name="backslash" unicode="\" horiz-adv-x="436" 
d="M283 -145l-159 945h71l160 -945h-72z" />
    <glyph glyph-name="bracketright" unicode="]" horiz-adv-x="306" 
d="M174 -200h-188l9 64h121l123 871h-119l9 65h186z" />
    <glyph glyph-name="asciicircum" unicode="^" horiz-adv-x="575" 
d="M372 667l147 -392h-70l-112 319l-201 -319h-72l258 392h50z" />
    <glyph glyph-name="underscore" unicode="_" horiz-adv-x="387" 
d="M368 -236h-386l9 65h386z" />
    <glyph glyph-name="grave" unicode="`" horiz-adv-x="352" 
d="M275 592l-56 -21l-99 132l73 30z" />
    <glyph glyph-name="a" unicode="a" horiz-adv-x="484" 
d="M184 -7q-132 0 -132 174q0 133 49 231q25 51 70 81.5t103 30.5q88 0 133 -64l16 54h40l-71 -500h-39l-16 59l-13 -11q-65 -55 -140 -55zM379 400q-47 45 -95.5 45t-80.5 -24t-49 -65q-32 -76 -32 -178q0 -120 75 -120q53 0 99 41.5t55 105.5z" />
    <glyph glyph-name="b" unicode="b" horiz-adv-x="491" 
d="M335 511q132 0 132 -174q0 -120 -45 -223q-24 -54 -70 -87t-107 -33q-34 0 -67.5 17t-54.5 38l-27 -49h-40l98 700h68l-35 -250q86 61 148 61zM139 107q31 -49 108 -49q37 0 69.5 25.5t48.5 67.5q30 79 30 154q0 141 -74 141q-65 0 -144 -67z" />
    <glyph glyph-name="c" unicode="c" horiz-adv-x="390" 
d="M214 -5q-81 0 -121 50t-40 142q0 128 51 221q27 47 75 74.5t102 27.5t126 -24l-35 -58q-46 16 -89 16t-75.5 -23.5t-49.5 -62.5q-30 -74 -30 -167q0 -131 102 -131q50 0 110 18l4 -59q-75 -24 -130 -24z" />
    <glyph glyph-name="d" unicode="d" horiz-adv-x="487" 
d="M173 -8q-132 0 -132 174q0 162 59.5 252.5t162.5 90.5q61 0 115 -49l34 240h68l-99 -700h-40l-15 57q-91 -65 -153 -65zM269 445q-80 0 -118 -73.5t-38 -185.5q0 -63 20 -96t54 -33q65 0 144 67l36 260q-15 25 -43.5 43t-54.5 18z" />
    <glyph glyph-name="e" unicode="e" horiz-adv-x="440" 
d="M225 -6q-80 0 -126.5 46.5t-46.5 143.5q0 119 53 218q26 48 71.5 78t108.5 30t100.5 -33t37.5 -96t-61 -106.5t-183 -43.5q-25 0 -55 3q-4 -23 -4 -46q0 -70 34 -100t87 -30q40 0 81 14l46 15l2 -58q-95 -35 -145 -35zM184 288q73 0 123.5 23t50.5 70q0 64 -87 64
q-102 0 -136 -154q24 -3 49 -3z" />
    <glyph glyph-name="f" unicode="f" horiz-adv-x="261" 
d="M204 681q38 29 77.5 29t75.5 -13l-18 -54q-30 6 -43 6q-64 0 -73 -67l-11 -82h93l-9 -60h-92l-62 -450q-12 -85 -34.5 -136.5t-62.5 -92.5l-33 35q43 55 59 170l65 474h-69l9 60h68l12 86q10 66 48 95z" />
    <glyph glyph-name="g" unicode="g" horiz-adv-x="487" 
d="M188 -7q-132 0 -132 174q0 161 62 252t160 91q76 0 116 -74l32 65h40l-72 -522q-15 -108 -72 -161.5t-139 -53.5q-46 0 -76.5 12t-63.5 27l20 53q71 -27 122.5 -27t89.5 35t48 106l11 83l-6 -5q-76 -55 -140 -55zM372 336q0 49 -29 79t-61 30q-82 0 -119 -73.5
t-37 -193.5t75 -120q66 0 143 67q28 200 28 211z" />
    <glyph glyph-name="h" unicode="h" horiz-adv-x="500" 
d="M375 360q0 87 -77 87q-68 0 -118 -48l-56 -399h-67l98 700h66l-33 -240q22 17 34.5 25.5t39 16.5t59.5 8q55 0 89 -33.5t34 -95.5q0 -13 -2 -33l-49 -348h-67q49 347 49 360z" />
    <glyph glyph-name="i" unicode="i" horiz-adv-x="206" 
d="M45 0l70 500h67l-70 -500h-67zM210 700l-12 -89h-67l12 89h67z" />
    <glyph glyph-name="j" unicode="j" horiz-adv-x="200" 
d="M213 700l-13 -88h-67l13 88h67zM-17 -204q43 54 60 170l75 534h67l-72 -510q-12 -86 -34.5 -137t-62.5 -92z" />
    <glyph glyph-name="k" unicode="k" horiz-adv-x="458" 
d="M155 700h67l-58 -412l223 212h85l-218 -203l158 -297h-76l-129 250l-56 -54l-27 -196h-67z" />
    <glyph glyph-name="l" unicode="l" horiz-adv-x="231" 
d="M57 0l98 700h67l-98 -700h-67z" />
    <glyph glyph-name="m" unicode="m" horiz-adv-x="765" 
d="M325 510q85 0 115 -68q85 68 146 68t96 -32t35 -94q0 -14 -2 -32l-49 -352h-66l45 321q2 12 2 32q0 45 -20.5 68.5t-55.5 23.5q-57 0 -121 -50q0 -28 -2 -43l-49 -352h-66q48 342 48 354q0 44 -20.5 67.5t-52 23.5t-55 -8t-35 -16t-31.5 -24l-55 -397h-68l70 500h44
l4 -52q24 20 38.5 30t43.5 21t61 11z" />
    <glyph glyph-name="n" unicode="n" horiz-adv-x="498" 
d="M325 510q55 0 89.5 -33t34.5 -95q0 -17 -3 -35l-48 -347h-67q48 347 48 359q0 87 -77 87q-63 0 -116 -49l-55 -397h-67l70 500h43l4 -49q23 18 37.5 28t44.5 20.5t62 10.5z" />
    <glyph glyph-name="o" unicode="o" horiz-adv-x="466" 
d="M274 445q-79 0 -117 -71t-38 -159.5t23 -122t76 -33.5q81 0 121 66.5t40 155.5t-25.5 126.5t-79.5 37.5zM212 -6q-162 0 -162 205q0 134 62 222.5t171 88.5q80 0 122.5 -53t42.5 -158q0 -130 -61.5 -217.5t-174.5 -87.5z" />
    <glyph glyph-name="p" unicode="p" horiz-adv-x="491" 
d="M350 510q132 0 132 -173q0 -162 -56 -252.5t-166 -90.5q-62 0 -115 48l-39 -278h-68l103 736h40l15 -57q91 67 154 67zM254 58q81 0 118.5 69.5t37.5 187.5q0 64 -20.5 97t-52 33t-61.5 -13t-44.5 -24t-39.5 -32l-38 -266q15 -24 43.5 -38t56.5 -14z" />
    <glyph glyph-name="q" unicode="q" horiz-adv-x="487" 
d="M260 445q-62 0 -97.5 -76t-35.5 -186q0 -124 93 -124q35 0 70.5 22t56.5 58l33 230q-13 31 -50 53.5t-70 22.5zM96 37q-41 43 -41 136q0 142 55 239.5t163 97.5q63 0 122 -67l31 57h40l-103 -736h-68l41 293q-23 -23 -32 -29.5t-24 -15.5q-30 -18 -86.5 -18t-97.5 43z
" />
    <glyph glyph-name="r" unicode="r" horiz-adv-x="334" 
d="M353.5 507.5q7.5 -2.5 11.5 -3.5l-20 -69q-16 6 -43 6q-55 0 -118 -59l-53 -382h-67l70 500h43l3 -59q48 38 79 53.5t59 15.5t35.5 -2.5z" />
    <glyph glyph-name="s" unicode="s" horiz-adv-x="393" 
d="M59 89q55 -30 108.5 -30t86.5 28t33 76q0 49 -70 77q-29 11 -57.5 23t-49 36t-20.5 59q0 70 44 111t109 41t117 -21l6 -3l-21 -64q-23 14 -57.5 18.5t-44.5 4.5q-83 0 -83 -76q0 -21 20 -36.5t49 -27.5t58 -26.5t49 -42.5t20 -67q0 -79 -52.5 -127t-132.5 -48t-136 39z
" />
    <glyph glyph-name="t" unicode="t" horiz-adv-x="311" 
d="M153 104q0 -49 53 -49q14 0 46 6l2 -54q-37 -13 -74.5 -13t-67 21t-29.5 69q0 10 49 356h-61l8 60h62l21 143h67l-21 -143h110l-8 -60h-111q-46 -325 -46 -336z" />
    <glyph glyph-name="u" unicode="u" horiz-adv-x="489" 
d="M182 -6q-51 0 -79.5 32t-28.5 91q0 19 3 40l48 343h67q-50 -360 -50 -385t14 -41t46.5 -16t73 22t63.5 47l52 373h68l-70 -500h-39l-15 59q-80 -65 -153 -65z" />
    <glyph glyph-name="v" unicode="v" horiz-adv-x="401" 
d="M443 500l-220 -500h-82l-79 500h79l53 -420l172 420h77z" />
    <glyph glyph-name="w" unicode="w" horiz-adv-x="611" 
d="M121 0l-61 500h72l41 -421l150 421h70l38 -425l150 425h74l-193 -500h-83l-36 395l-140 -395h-82z" />
    <glyph glyph-name="x" unicode="x" horiz-adv-x="392" 
d="M153 500l70 -176l117 176h77l-166 -245l102 -255h-75l-72 198l-126 -198h-77l174 255l-98 245h74z" />
    <glyph glyph-name="y" unicode="y" horiz-adv-x="401" 
d="M151 -10l-81 510h77l55 -420l174 420h75l-225 -500q-44 -97 -87 -149.5t-104 -86.5l-19 52q40 23 78 67.5t57 106.5z" />
    <glyph glyph-name="z" unicode="z" horiz-adv-x="379" 
d="M96 500h276l-8 -60l-249 -375h207l-9 -65h-287l8 60l249 375h-196z" />
    <glyph glyph-name="braceleft" unicode="{" horiz-adv-x="320" 
d="M365 801h19l-9 -64h-18q-56 0 -80.5 -32.5t-36.5 -113.5l-21 -153q-10 -69 -26.5 -95t-61.5 -39q30 -7 42.5 -26.5t12.5 -50t-4 -55.5l-22 -151q-6 -42 -6 -81.5t19 -58t64 -18.5h15l-9 -64h-21q-137 0 -137 140q0 28 4 56l21 150q3 22 3 44q0 89 -69 89l7 46
q48 0 70 30.5t32 96.5l21 150q27 200 191 200z" />
    <glyph glyph-name="bar" unicode="|" horiz-adv-x="261" 
d="M114 -203h-67l141 1003h67z" />
    <glyph glyph-name="braceright" unicode="}" horiz-adv-x="320" 
d="M137 801q140 0 140 -145q0 -19 -15 -124.5t-15 -137.5q0 -70 70 -70l-7 -46q-83 0 -102 -133l-21 -150q-15 -106 -63 -151t-126 -45h-20l9 64h14q56 0 82 32.5t39 125.5l22 151q9 63 27 93t59 39q-31 10 -43 25.5t-12 43t6 65.5l21 153q5 40 5 74t-18 53t-62 19h-18l9 64
h19z" />
    <glyph glyph-name="asciitilde" unicode="~" horiz-adv-x="475" 
d="M332 226q-42 0 -86.5 29.5t-79 29.5t-82.5 -45l-15 47q22 28 52 46t67 18t81 -30t78 -30t84 46l18 -29q-46 -82 -117 -82z" />
    <glyph glyph-name="uni00A0" unicode="&#xa0;" horiz-adv-x="360" 
 />
    <glyph glyph-name="exclamdown" unicode="&#xa1;" horiz-adv-x="240" 
d="M125 404h67l-72 -511h-67zM153 594h67l-13 -93h-67z" />
    <glyph glyph-name="cent" unicode="&#xa2;" horiz-adv-x="343" 
d="M56 243q0 91 28 163q14 38 42 65t66 38l13 97h59l-13 -96q46 0 101 -19l-27 -60q-37 13 -72 13q-69 0 -99 -49t-30 -145q0 -48 19 -70t61 -22t92 15l2 -63q-58 -18 -106 -18l-13 -92h-59l13 94q-77 29 -77 149z" />
    <glyph glyph-name="sterling" unicode="&#xa3;" horiz-adv-x="486" 
d="M309 710q27 0 64 -14l-17 -54q-29 6 -51 6t-43 -19.5t-26 -55.5l-22 -158h152l-9 -65h-152l-39 -285h245l-9 -65h-312l49 350h-61l9 65h61l24 180q8 61 47.5 88t89.5 27z" />
    <glyph glyph-name="currency" unicode="&#xa4;" horiz-adv-x="548" 
d="M193 488q55 41 133 41t123 -48l65 63l35 -46l-68 -66q15 -42 15 -90t-14.5 -99t-38.5 -86l47 -62l-55 -53l-46 59q-54 -40 -131 -40t-119 44l-57 -55l-35 46l62 58q-14 34 -14 84t12.5 103t34.5 88l-44 60l55 53zM314 464q-70 0 -111.5 -62t-41.5 -146q0 -58 29 -94
t78 -36q73 0 117 58t44 145q0 61 -30 98t-85 37z" />
    <glyph glyph-name="yen" unicode="&#xa5;" horiz-adv-x="549" 
d="M323 301h167l-9 -65h-167l-12 -87h167l-9 -65h-167l-12 -84h-68l12 84h-151l9 65h151l12 87h-151l9 65h151l-143 399h75l113 -334l213 334h73z" />
    <glyph glyph-name="brokenbar" unicode="&#xa6;" horiz-adv-x="283" 
d="M203 413h-59l55 393h59zM118 -194h-59l55 395h59z" />
    <glyph glyph-name="section" unicode="&#xa7;" horiz-adv-x="544" 
d="M183.5 367.5q-24.5 -30.5 -24.5 -65t28.5 -58t78.5 -47.5t72 -42q68 45 78 81q6 19 6 49.5t-22.5 55.5t-71 53t-66.5 42q-54 -38 -78.5 -68.5zM105 -49q58 -43 120 -43t95.5 29.5t33.5 71.5t-27 68t-66 44.5t-78 38t-66 52.5t-27 82t33 92.5t99 90.5q-22 30 -22 67
q0 81 48.5 123.5t131.5 42.5q54 0 114 -27l-19 -62q-49 24 -96.5 24t-78.5 -24t-31 -72q0 -46 79 -93q32 -20 64.5 -41.5t55.5 -54.5t23 -80t-24.5 -83.5t-84.5 -79.5q41 -39 41 -95q0 -77 -58.5 -128t-154.5 -51q-34 0 -71 13t-60 30z" />
    <glyph glyph-name="dieresis" unicode="&#xa8;" horiz-adv-x="461" 
d="M156 709l14 106h64l-14 -106h-64zM318 709l14 106h63l-14 -106h-63z" />
    <glyph glyph-name="copyright" unicode="&#xa9;" horiz-adv-x="498" 
d="M339 343q-36 9 -46 9q-87 0 -87 -128q0 -72 58 -72q30 0 56 10l3 -41q-41 -12 -73 -12q-91 0 -91 109q0 83 35 130.5t99 47.5q23 0 43.5 -6t22.5 -7zM357 29.5q-54 -48.5 -130 -48.5t-116 52t-40 147.5t25 173.5t79 126.5t130 48.5t116 -52t40 -147.5t-25 -173.5
t-79 -126.5zM150.5 71q25.5 -40 83.5 -40t98 43q75 81 75 242q0 83 -25.5 123t-83.5 40t-98 -43q-75 -81 -75 -242q0 -83 25.5 -123z" />
    <glyph glyph-name="ordfeminine" unicode="&#xaa;" horiz-adv-x="327" 
d="M264 234h-215l8 55h215zM245 399q-49 -41 -90 -41t-61.5 29.5t-20.5 78.5q0 219 145 219q16 0 35.5 -8.5t29.5 -18.5l16 22h23l-43 -319h-25zM216 640q-97 0 -97 -166q0 -31 10.5 -50t27.5 -19q29 0 58 23t33 51l19 140q-23 21 -51 21z" />
    <glyph glyph-name="guillemotleft" unicode="&#xab;" horiz-adv-x="460" 
d="M386 108l-48 -19l-89 208l149 209l41 -18l-119 -189zM216 97l-48 -19l-94 219l157 221l42 -19l-126 -200z" />
    <glyph glyph-name="logicalnot" unicode="&#xac;" horiz-adv-x="466" 
d="M422 125h-68l20 144h-319l9 65h387z" />
    <glyph glyph-name="uni00AD" unicode="&#xad;" horiz-adv-x="360" 
d="M375 257h-360l9 65h360z" />
    <glyph glyph-name="registered" unicode="&#xae;" horiz-adv-x="496" 
d="M244 426h-11l-17 -121h-36l39 279h77q68 0 68 -58q0 -27 -18.5 -51.5t-43.5 -27.5q17 -5 23 -13.5t13 -34.5l25 -94h-42l-22 79q-7 25 -18.5 33.5t-36.5 8.5zM292 550h-42l-11 -77h37q23 0 36.5 13.5t13.5 34.5q0 29 -34 29zM370 210.5q-54 -48.5 -130 -48.5t-116 52
t-40 147.5t25 173.5t79 126.5t130 48.5t116 -52t40 -147.5t-25 -173.5t-79 -126.5zM163.5 252q25.5 -40 83.5 -40t99 44q74 80 74 241q0 83 -25.5 123t-83.5 40t-99 -44q-74 -80 -74 -241q0 -83 25.5 -123z" />
    <glyph glyph-name="macron" unicode="&#xaf;" horiz-adv-x="447" 
d="M119 614l10 65h285l-10 -65h-285z" />
    <glyph glyph-name="degree" unicode="&#xb0;" horiz-adv-x="407" 
d="M222 444q-57 0 -93 39t-36 100q0 83 50.5 138t125.5 55q57 0 93 -39t36 -100q0 -83 -50.5 -138t-125.5 -55zM321 696.5q-22 25.5 -65.5 25.5t-75.5 -39.5t-32 -86.5t22 -72.5t65.5 -25.5t75.5 39.5t32 86.5t-22 72.5z" />
    <glyph glyph-name="plusminus" unicode="&#xb1;" horiz-adv-x="453" 
d="M440 357h-155l-27 -193h-68l27 193h-147l9 65h147l28 200h68l-28 -200h155zM390 0h-370l9 65h370z" />
    <glyph glyph-name="twosuperior" unicode="&#xb2;" horiz-adv-x="392" 
d="M273 575q0 44 -45 44q-36 0 -74 -11l10 40q46 14 86.5 14t60.5 -17.5t20 -48.5t-12 -61t-40 -62q-46 -52 -104 -103h148l-15 -47h-207l5 32q2 2 25.5 24t36.5 34.5t36 37.5t36 43q33 48 33 81z" />
    <glyph glyph-name="threesuperior" unicode="&#xb3;" horiz-adv-x="382" 
d="M200 505q34 0 55.5 23t21.5 49q0 37 -48 37q-35 0 -77 -23l-2 46q37 25 89 25q83 0 83 -78.5t-74 -105.5q60 -10 60 -73q0 -51 -36.5 -84.5t-91.5 -33.5q-24 0 -45 6.5t-39 18.5l18 43q24 -18 62.5 -18t61 16.5t22.5 48.5q0 50 -68 50h-35l7 53h36z" />
    <glyph glyph-name="acute" unicode="&#xb4;" horiz-adv-x="364" 
d="M178 571l-50 21l122 141l63 -30z" />
    <glyph glyph-name="mu" unicode="&#xb5;" horiz-adv-x="502" 
d="M263.5 4.5q-26.5 -10.5 -56 -10.5t-65.5 16l-35 -246h-67l103 736h69q-50 -360 -50 -385t14 -41t46.5 -16t73 22t63.5 47l52 373h68l-70 -500h-39l-15 59q-30 -22 -47.5 -33t-44 -21.5z" />
    <glyph glyph-name="mu" unicode="&#x3bc;" horiz-adv-x="502" 
d="M263.5 4.5q-26.5 -10.5 -56 -10.5t-65.5 16l-35 -246h-67l103 736h69q-50 -360 -50 -385t14 -41t46.5 -16t73 22t63.5 47l52 373h68l-70 -500h-39l-15 59q-30 -22 -47.5 -33t-44 -21.5z" />
    <glyph glyph-name="paragraph" unicode="&#xb6;" horiz-adv-x="539" 
d="M117 502q0 87 55.5 147.5t151.5 60.5h239l-9 -60h-63l-120 -853h-59l120 853h-82l-120 -853h-58l79 561q-63 0 -98.5 40.5t-35.5 103.5z" />
    <glyph glyph-name="periodcentered" unicode="&#xb7;" horiz-adv-x="163" 
d="M128 247h-67l15 103h67z" />
    <glyph glyph-name="cedilla" unicode="&#xb8;" horiz-adv-x="339" 
d="M186 0h64q-7 -49 -22 -80.5t-59 -96.5l-40 31q31 54 41 78t16 68z" />
    <glyph glyph-name="onesuperior" unicode="&#xb9;" horiz-adv-x="341" 
d="M88 316l6 48h63l33 236l-82 -50l-11 49l102 63h45l-42 -298h63l-6 -48h-171z" />
    <glyph glyph-name="ordmasculine" unicode="&#xba;" horiz-adv-x="333" 
d="M271 234h-215l7 54h215zM187 408q26 0 45 29q37 54 37 133.5t-47 79.5q-26 0 -46 -29q-36 -54 -36 -133.5t47 -79.5zM228 700q49 0 73.5 -32t24.5 -88q0 -90 -36 -156t-109 -66q-49 0 -73.5 32t-24.5 88q0 90 36 156t109 66z" />
    <glyph glyph-name="guillemotright" unicode="&#xbb;" horiz-adv-x="460" 
d="M115 488l48 19l89 -208l-149 -209l-41 18l118 189zM285 499l48 19l94 -219l-157 -221l-42 19l126 200z" />
    <glyph glyph-name="onequarter" unicode="&#xbc;" horiz-adv-x="796" 
d="M660 688l-464 -688h-66l464 688h66zM598 0l12 85h-183l6 41l194 301h52l-188 -292h126l16 115h46l-16 -116h61l-7 -49h-61l-12 -85h-46zM99 316l6 48h63l34 236l-81 -50l-11 49l100 63h45l-42 -298h63l-6 -48h-171z" />
    <glyph glyph-name="onehalf" unicode="&#xbd;" horiz-adv-x="734" 
d="M660 688l-465 -688h-65l464 688h66zM99 316l6 48h62l34 236l-81 -50l-11 49l101 63h45l-42 -298h63l-6 -48h-171zM617 252q0 44 -45 44q-28 0 -74 -11l10 40q46 14 86.5 14t60.5 -17.5t20 -48.5t-12 -61t-40 -62q-45 -52 -104 -103h148l-15 -47h-207l5 32q2 2 25.5 24
t36.5 34.5t36 37.5t36 43q33 48 33 81z" />
    <glyph glyph-name="threequarters" unicode="&#xbe;" horiz-adv-x="797" 
d="M597 0l12 85h-182l6 41l193 301h52l-188 -292h126l16 115h47l-16 -116h61l-7 -49h-62l-12 -85h-46zM659 688l-464 -688h-66l465 688h65zM197 505q34 0 55.5 23t21.5 49q0 37 -48 37q-35 0 -77 -23l-2 46q37 25 89 25q83 0 83 -78.5t-74 -105.5q60 -10 60 -73
q0 -51 -36.5 -84.5t-91.5 -33.5q-24 0 -45 6.5t-39 18.5l18 43q24 -18 62.5 -18t61 16.5t22.5 48.5q0 50 -68 50h-35l7 53h36z" />
    <glyph glyph-name="questiondown" unicode="&#xbf;" horiz-adv-x="417" 
d="M78 -68q-37 34 -37 86.5t18 89.5t44.5 63.5t54.5 52.5q68 63 77 127l9 63h66l-8 -58q-13 -86 -76 -146q-27 -25 -52 -49q-59 -57 -59 -123q0 -74 88 -74q59 0 112 19l2 -58q-76 -27 -139 -27t-100 34zM272 608h67l-13 -98h-67z" />
    <glyph glyph-name="Agrave" unicode="&#xc0;" horiz-adv-x="521" 
d="M484 0h-75l-32 221h-226l-93 -221h-70l304 700h82zM370 286l-48 338l-145 -338h193zM332 753h-55l-70 124h76z" />
    <glyph glyph-name="Aacute" unicode="&#xc1;" horiz-adv-x="521" 
d="M484 0h-75l-32 221h-226l-93 -221h-70l304 700h82zM370 286l-48 338l-145 -338h193zM280 752l85 124h76l-106 -124h-55z" />
    <glyph glyph-name="Acircumflex" unicode="&#xc2;" horiz-adv-x="521" 
d="M484 0h-75l-32 221h-226l-93 -221h-70l304 700h82zM370 286l-48 338l-145 -338h193zM310 880h43l108 -100l-21 -29l-117 75l-138 -75l-13 29z" />
    <glyph glyph-name="Atilde" unicode="&#xc3;" horiz-adv-x="521" 
d="M365.5 757q-17.5 0 -66 27.5t-60.5 27.5t-26.5 -9.5t-31.5 -28.5l-25 26q18 24 47 47t46.5 23t65.5 -27.5t60 -27.5q23 0 49 29l8 9l27 -26q-18 -24 -47 -47t-46.5 -23zM427 0h-75l-32 221h-226l-93 -221h-70l304 700h82zM313 286l-48 338l-145 -338h193z" />
    <glyph glyph-name="Adieresis" unicode="&#xc4;" horiz-adv-x="521" 
d="M484 0h-75l-32 221h-226l-93 -221h-70l304 700h82zM370 286l-48 338l-145 -338h193zM200 755l14 106h64l-14 -106h-64zM362 755l14 106h63l-14 -106h-63z" />
    <glyph glyph-name="Aring" unicode="&#xc5;" horiz-adv-x="521" 
d="M484 0h-75l-32 221h-226l-93 -221h-70l304 700h82zM370 286l-48 338l-145 -338h193zM349 972q88 0 88 -86q0 -58 -28 -96t-89 -38q-88 0 -88 86q0 58 28 96t89 38zM325 796q31 0 46 25t15 61q0 46 -42 46q-31 0 -46 -25t-15 -61q0 -46 42 -46z" />
    <glyph glyph-name="AE" unicode="&#xc6;" horiz-adv-x="766" 
d="M675 0h-358l31 221h-162l-128 -221h-70l392 700h393l-9 -65h-290l-31 -222h267l-9 -67h-267l-40 -281h290zM222 286h135l49 348z" />
    <glyph glyph-name="Ccedilla" unicode="&#xc7;" horiz-adv-x="526" 
d="M62 262q0 191 90.5 319t242.5 128q72 0 138 -29l-24 -62q-52 26 -115.5 26t-106.5 -24.5t-70 -63t-45 -88.5q-34 -91 -34 -192t39.5 -159t119 -58t155.5 44l10 -57q-69 -42 -141 -50q-7 -47 -22 -79.5t-59 -98.5l-40 31q30 51 40 76t16 71q-95 9 -144.5 78.5t-49.5 187.5
z" />
    <glyph glyph-name="Egrave" unicode="&#xc8;" horiz-adv-x="488" 
d="M396 0h-339l98 700h339l-9 -65h-272l-31 -222h250l-9 -67h-250l-40 -281h272zM347 753h-55l-70 124h76z" />
    <glyph glyph-name="Eacute" unicode="&#xc9;" horiz-adv-x="488" 
d="M396 0h-339l98 700h339l-9 -65h-272l-31 -222h250l-9 -67h-250l-40 -281h272zM245 752l85 124h76l-106 -124h-55z" />
    <glyph glyph-name="Ecircumflex" unicode="&#xca;" horiz-adv-x="489" 
d="M396 0h-339l98 700h339l-9 -65h-272l-31 -222h250l-9 -67h-250l-40 -281h272zM283 880h43l108 -100l-21 -29l-117 75l-138 -75l-13 29z" />
    <glyph glyph-name="Edieresis" unicode="&#xcb;" horiz-adv-x="488" 
d="M396 0h-339l98 700h339l-9 -65h-272l-31 -222h250l-9 -67h-250l-40 -281h272zM187 755l14 106h64l-14 -106h-64zM349 755l14 106h63l-14 -106h-63z" />
    <glyph glyph-name="Igrave" unicode="&#xcc;" horiz-adv-x="228" 
d="M143 0h-67l98 700h67zM214 753h-55l-70 124h76z" />
    <glyph glyph-name="Iacute" unicode="&#xcd;" horiz-adv-x="229" 
d="M99 0h-67l98 700h67zM115 753l85 124h76l-106 -124h-55z" />
    <glyph glyph-name="Icircumflex" unicode="&#xce;" horiz-adv-x="281" 
d="M151 0h-67l98 700h67zM194 883h43l108 -100l-21 -29l-117 75l-138 -75l-13 29z" />
    <glyph glyph-name="Idieresis" unicode="&#xcf;" horiz-adv-x="203" 
d="M109 0h-67l98 700h67zM41 755l14 106h64l-14 -106h-64zM203 755l14 106h63l-14 -106h-63z" />
    <glyph glyph-name="Eth" unicode="&#xd0;" horiz-adv-x="626" 
d="M595 434q0 -79 -26.5 -156t-74 -139t-121 -100.5t-159.5 -38.5h-132l44 317h-75l10 65h74l45 318h160q119 0 187 -73t68 -193zM231 65q84 0 151.5 57.5t101 140t33.5 173.5t-52.5 145t-130.5 54h-90l-36 -253h159l-10 -65h-158l-35 -252h67z" />
    <glyph glyph-name="Ntilde" unicode="&#xd1;" horiz-adv-x="611" 
d="M407.5 757q-17.5 0 -66 27.5t-60.5 27.5t-26.5 -9.5t-31.5 -28.5l-25 26q18 24 47 47t46.5 23t65.5 -27.5t60 -27.5q23 0 49 29l8 9l27 -26q-18 -24 -47 -47t-46.5 -23zM447 -1h-74l-224 561l-79 -560h-70l98 700h70l229 -582l81 582h67z" />
    <glyph glyph-name="Ograve" unicode="&#xd2;" horiz-adv-x="583" 
d="M265 -5q-103 0 -154 72.5t-51 193.5q0 163 70 299q35 67 96 108.5t140 41.5q104 0 155.5 -72t51.5 -193q0 -162 -71 -299q-36 -68 -97.5 -109.5t-139.5 -41.5zM253 607q-46 -38 -71 -97q-48 -117 -48 -236q0 -96 35 -154.5t99.5 -58.5t110 38t71.5 96q50 115 50 233
q0 94 -36 155.5t-100.5 61.5t-110.5 -38zM353 753h-55l-70 124h76z" />
    <glyph glyph-name="Oacute" unicode="&#xd3;" horiz-adv-x="583" 
d="M265 -5q-103 0 -154 72.5t-51 193.5q0 163 70 299q35 67 96 108.5t140 41.5q104 0 155.5 -72t51.5 -193q0 -162 -71 -299q-36 -68 -97.5 -109.5t-139.5 -41.5zM253 607q-46 -38 -71 -97q-48 -117 -48 -236q0 -96 35 -154.5t99.5 -58.5t110 38t71.5 96q50 115 50 233
q0 94 -36 155.5t-100.5 61.5t-110.5 -38zM300 753l85 124h76l-106 -124h-55z" />
    <glyph glyph-name="Ocircumflex" unicode="&#xd4;" horiz-adv-x="583" 
d="M265 -5q-103 0 -154 72.5t-51 193.5q0 163 70 299q35 67 96 108.5t140 41.5q104 0 155.5 -72t51.5 -193q0 -162 -71 -299q-36 -68 -97.5 -109.5t-139.5 -41.5zM464 583.5q-36 61.5 -100.5 61.5t-110.5 -38t-71 -97q-48 -117 -48 -224.5t35 -166t99.5 -58.5t110 38
t71.5 96q50 115 50 221t-36 167.5zM340 883h43l108 -100l-21 -29l-117 75l-138 -75l-13 29z" />
    <glyph glyph-name="Otilde" unicode="&#xd5;" horiz-adv-x="583" 
d="M385.5 754q-17.5 0 -66 27.5t-60.5 27.5t-26.5 -9.5t-31.5 -28.5l-25 26q19 26 47 48t45.5 22t66 -27.5t60.5 -27.5q23 0 49 28l8 10l26 -26q-19 -26 -47 -48t-45.5 -22zM209 -5q-103 0 -154 72.5t-51 193.5q0 163 70 299q35 67 96 108.5t140 41.5q104 0 155.5 -72
t51.5 -193q0 -162 -71 -299q-36 -68 -97.5 -109.5t-139.5 -41.5zM197 607q-46 -38 -71 -97q-48 -117 -48 -236q0 -96 35 -154.5t99.5 -58.5t110 38t71.5 96q50 115 50 233q0 94 -36 155.5t-100.5 61.5t-110.5 -38z" />
    <glyph glyph-name="Odieresis" unicode="&#xd6;" horiz-adv-x="583" 
d="M265 -5q-103 0 -154 72.5t-51 193.5q0 163 70 299q35 67 96 108.5t140 41.5q104 0 155.5 -72t51.5 -193q0 -162 -71 -299q-36 -68 -97.5 -109.5t-139.5 -41.5zM253 607q-46 -38 -71 -97q-48 -117 -48 -236q0 -96 35 -154.5t99.5 -58.5t110 38t71.5 96q50 115 50 233
q0 94 -36 155.5t-100.5 61.5t-110.5 -38zM230 754l14 106h64l-14 -106h-64zM392 754l14 106h63l-14 -106h-63z" />
    <glyph glyph-name="multiply" unicode="&#xd7;" horiz-adv-x="548" 
d="M549 498l-210 -202l151 -201l-55 -53l-152 201l-201 -193l-35 46l202 193l-151 200l55 53l151 -200l210 202z" />
    <glyph glyph-name="Oslash" unicode="&#xd8;" horiz-adv-x="584" 
d="M265 -5q-38 0 -73 11l-52 -115h-61l64 142q-83 67 -83 228q0 163 70 299q35 67 96 108.5t140 41.5q41 0 77 -13l47 103h62l-60 -132q81 -67 81 -223q0 -162 -71 -299q-36 -68 -97.5 -109.5t-139.5 -41.5zM358 645q-59 0 -105 -38t-71 -97q-48 -117 -48 -232.5t43 -169.5
l237 524q-26 13 -56 13zM458 592l-236 -521q21 -10 53 -10q58 0 103.5 38t71.5 96q50 115 50 226t-42 171z" />
    <glyph glyph-name="Ugrave" unicode="&#xd9;" horiz-adv-x="598" 
d="M273 -6q-185 0 -185 196q0 28 5 68l62 442h68l-63 -454q-4 -24 -4 -48q0 -67 32.5 -103t97.5 -36t111.5 48.5t59.5 138.5l63 454h69l-62 -442q-18 -131 -83 -197.5t-171 -66.5zM381 754h-55l-70 124h76z" />
    <glyph glyph-name="Uacute" unicode="&#xda;" horiz-adv-x="598" 
d="M273 -6q-185 0 -185 196q0 28 5 68l62 442h68l-63 -454q-4 -24 -4 -48q0 -67 32.5 -103t97.5 -36t111.5 48.5t59.5 138.5l63 454h69l-62 -442q-18 -131 -83 -197.5t-171 -66.5zM319 753l85 124h76l-106 -124h-55z" />
    <glyph glyph-name="Ucircumflex" unicode="&#xdb;" horiz-adv-x="598" 
d="M273 -6q-185 0 -185 196q0 28 5 68l62 442h68l-63 -454q-4 -24 -4 -48q0 -67 32.5 -103t97.5 -36t111.5 48.5t59.5 138.5l63 454h69l-62 -442q-18 -131 -83 -197.5t-171 -66.5zM348 883h43l108 -100l-21 -29l-117 75l-138 -75l-13 29z" />
    <glyph glyph-name="Udieresis" unicode="&#xdc;" horiz-adv-x="598" 
d="M273 -6q-185 0 -185 196q0 28 5 68l62 442h68l-63 -454q-4 -24 -4 -48q0 -67 32.5 -103t97.5 -36t111.5 48.5t59.5 138.5l63 454h69l-62 -442q-18 -131 -83 -197.5t-171 -66.5zM238 754l14 106h64l-14 -106h-64zM400 754l14 106h63l-14 -106h-63z" />
    <glyph glyph-name="Yacute" unicode="&#xdd;" horiz-adv-x="496" 
d="M552 700l-261 -385l-44 -315h-68l44 315l-145 385h75l114 -324l212 324h73zM279 752l85 124h76l-106 -124h-55z" />
    <glyph glyph-name="Thorn" unicode="&#xde;" horiz-adv-x="491" 
d="M308 590q84 0 130.5 -40.5t46.5 -107.5q0 -125 -63.5 -191.5t-181.5 -66.5h-92l-26 -184h-67l98 700h67l-15 -110h103zM278 526h-82l-39 -278h60q98 0 146 40t48 133q0 56 -29.5 80.5t-103.5 24.5z" />
    <glyph glyph-name="germandbls" unicode="&#xdf;" horiz-adv-x="511" 
d="M192 667q47 43 133.5 43t129 -42.5t42.5 -109.5t-42 -118.5t-91 -57.5q50 -8 81 -47.5t31 -102.5q0 -112 -67.5 -175t-158.5 -63q-30 0 -57 5l7 53q99 0 154 45t55 130q0 47 -33.5 81t-98.5 35h-26l9 64h25q54 0 99.5 42t45.5 100q0 43 -26.5 69.5t-72.5 26.5
q-73 0 -100 -35.5t-37 -111.5l-70 -498h-67l75 532q13 92 60 135z" />
    <glyph glyph-name="agrave" unicode="&#xe0;" 
d="M156 -7q-132 0 -132 174q0 133 49 231q25 51 70 81.5t103 30.5q88 0 133 -64l16 54h40l-71 -500h-39l-16 59l-13 -11q-65 -55 -140 -55zM351 400q-47 45 -95.5 45t-80.5 -24t-49 -65q-32 -76 -32 -178q0 -120 75 -120q53 0 99 41.5t55 105.5zM315 592l-56 -21l-99 132
l73 30z" />
    <glyph glyph-name="aacute" unicode="&#xe1;" 
d="M156 -7q-132 0 -132 174q0 133 49 231q25 51 70 81.5t103 30.5q88 0 133 -64l16 54h40l-71 -500h-39l-16 59l-13 -11q-65 -55 -140 -55zM351 400q-47 45 -95.5 45t-80.5 -24t-49 -65q-32 -76 -32 -178q0 -120 75 -120q53 0 99 41.5t55 105.5zM302 571l-50 21l122 141
l63 -30z" />
    <glyph glyph-name="acircumflex" unicode="&#xe2;" 
d="M156 -7q-132 0 -132 174q0 133 49 231q25 51 70 81.5t103 30.5q88 0 133 -64l16 54h40l-71 -500h-39l-16 59l-13 -11q-65 -55 -140 -55zM351 400q-47 45 -95.5 45t-80.5 -24t-49 -65q-32 -76 -32 -178q0 -120 75 -120q53 0 99 41.5t55 105.5zM272 712h43l108 -100
l-21 -29l-117 75l-138 -75l-13 29z" />
    <glyph glyph-name="atilde" unicode="&#xe3;" 
d="M156 -7q-132 0 -132 174q0 133 49 231q25 51 70 81.5t103 30.5q88 0 133 -64l16 54h40l-71 -500h-39l-16 59l-13 -11q-65 -55 -140 -55zM351 400q-47 45 -95.5 45t-80.5 -24t-49 -65q-32 -76 -32 -178q0 -120 75 -120q53 0 99 41.5t55 105.5zM338.5 580
q-17.5 0 -65.5 27.5t-60 27.5t-26.5 -9.5t-31.5 -28.5l-25 33q18 24 47 47t46.5 23t65.5 -27.5t60 -27.5t26.5 9.5t31.5 28.5l26 -26l-1 -7q-18 -24 -47 -47t-46.5 -23z" />
    <glyph glyph-name="adieresis" unicode="&#xe4;" 
d="M156 -7q-132 0 -132 174q0 133 49 231q25 51 70 81.5t103 30.5q88 0 133 -64l16 54h40l-71 -500h-39l-16 59l-13 -11q-65 -55 -140 -55zM351 400q-47 45 -95.5 45t-80.5 -24t-49 -65q-32 -76 -32 -178q0 -120 75 -120q53 0 99 41.5t55 105.5zM164 594l14 106h64l-14 -106
h-64zM326 594l14 106h63l-14 -106h-63z" />
    <glyph glyph-name="aring" unicode="&#xe5;" 
d="M156 -7q-132 0 -132 174q0 133 49 231q25 51 70 81.5t103 30.5q88 0 133 -64l16 54h40l-71 -500h-39l-16 59l-13 -11q-65 -55 -140 -55zM351 400q-47 45 -95.5 45t-80.5 -24t-49 -65q-32 -76 -32 -178q0 -120 75 -120q53 0 99 41.5t55 105.5zM288 772q88 0 88 -86
q0 -58 -28 -96t-89 -38q-88 0 -88 86q0 58 28 96t89 38zM264 596q31 0 46 25t15 61q0 46 -42 46q-31 0 -46 -25t-15 -61q0 -46 42 -46z" />
    <glyph glyph-name="ae" unicode="&#xe6;" horiz-adv-x="711" 
d="M157 -7q-132 0 -132 174q0 133 49 231q25 51 70 81.5t103 30.5q89 0 135 -44l14 34h40l-4 -30q50 40 117.5 40t105 -33t37.5 -96t-61 -106.5t-183 -43.5q-25 0 -55 3q-4 -23 -4 -46q0 -70 34 -100t87 -30q40 0 80 14l47 15l2 -58q-95 -35 -145 -35q-117 0 -155 91l2 14
q-78 -106 -184 -106zM354 420q-45 25 -95.5 25t-82.5 -24t-49 -65q-32 -76 -32 -178q0 -120 75 -120q53 0 99 41.5t55 105.5zM453 288q73 0 123.5 23t50.5 70q0 64 -87 64q-102 0 -136 -154q24 -3 49 -3z" />
    <glyph glyph-name="ccedilla" unicode="&#xe7;" horiz-adv-x="390" 
d="M53 187q0 128 51 221q27 47 75 74.5t102 27.5t126 -24l-35 -58q-46 16 -89 16t-75.5 -23.5t-49.5 -62.5q-30 -74 -30 -167q0 -131 102 -131q50 0 110 18l4 -59q-58 -19 -103 -23q-7 -47 -22 -80.5t-59 -97.5l-40 31q33 54 44 79t17 70q-128 19 -128 189z" />
    <glyph glyph-name="egrave" unicode="&#xe8;" horiz-adv-x="440" 
d="M225 -6q-80 0 -126.5 46.5t-46.5 143.5q0 119 53 218q26 48 71.5 78t108.5 30t100.5 -33t37.5 -96t-61 -106.5t-183 -43.5q-25 0 -55 3q-4 -23 -4 -46q0 -70 34 -100t87 -30q40 0 81 14l46 15l2 -58q-95 -35 -145 -35zM184 288q73 0 123.5 23t50.5 70q0 64 -87 64
q-102 0 -136 -154q24 -3 49 -3zM316 592l-56 -21l-99 132l73 30z" />
    <glyph glyph-name="eacute" unicode="&#xe9;" horiz-adv-x="440" 
d="M225 -6q-80 0 -126.5 46.5t-46.5 143.5q0 119 53 218q26 48 71.5 78t108.5 30t100.5 -33t37.5 -96t-61 -106.5t-183 -43.5q-25 0 -55 3q-4 -23 -4 -46q0 -70 34 -100t87 -30q40 0 81 14l46 15l2 -58q-95 -35 -145 -35zM184 288q73 0 123.5 23t50.5 70q0 64 -87 64
q-102 0 -136 -154q24 -3 49 -3zM289 571l-50 21l122 141l63 -30z" />
    <glyph glyph-name="ecircumflex" unicode="&#xea;" horiz-adv-x="440" 
d="M225 -6q-80 0 -126.5 46.5t-46.5 143.5q0 119 53 218q26 48 71.5 78t108.5 30t100.5 -33t37.5 -96t-61 -106.5t-183 -43.5q-25 0 -55 3q-4 -23 -4 -46q0 -70 34 -100t87 -30q40 0 81 14l46 15l2 -58q-95 -35 -145 -35zM184 288q73 0 123.5 23t50.5 70q0 64 -87 64
q-102 0 -136 -154q24 -3 49 -3zM280 712h43l108 -100l-21 -29l-117 75l-138 -75l-13 29z" />
    <glyph glyph-name="edieresis" unicode="&#xeb;" horiz-adv-x="440" 
d="M225 -6q-80 0 -126.5 46.5t-46.5 143.5q0 119 53 218q26 48 71.5 78t108.5 30t100.5 -33t37.5 -96t-61 -106.5t-183 -43.5q-25 0 -55 3q-4 -23 -4 -46q0 -70 34 -100t87 -30q40 0 81 14l46 15l2 -58q-95 -35 -145 -35zM184 288q73 0 123.5 23t50.5 70q0 64 -87 64
q-102 0 -136 -154q24 -3 49 -3zM170 595l14 106h64l-14 -106h-64zM332 595l14 106h63l-14 -106h-63z" />
    <glyph glyph-name="igrave" unicode="&#xec;" horiz-adv-x="204" 
d="M52 0l70 500h65l-70 -500h-65zM157 586l-56 -21l-99 132l73 30z" />
    <glyph glyph-name="iacute" unicode="&#xed;" horiz-adv-x="204" 
d="M52 0l70 500h65l-70 -500h-65zM143 571l-50 21l122 141l63 -30z" />
    <glyph glyph-name="icircumflex" unicode="&#xee;" horiz-adv-x="206" 
d="M52 0l70 500h67l-70 -500h-67zM113 712h43l108 -100l-21 -29l-117 75l-138 -75l-13 29z" />
    <glyph glyph-name="idieresis" unicode="&#xef;" horiz-adv-x="206" 
d="M52 0l70 500h67l-70 -500h-67zM4 594l14 106h64l-14 -106h-64zM166 594l14 106h63l-14 -106h-63z" />
    <glyph glyph-name="eth" unicode="&#xf0;" horiz-adv-x="516" 
d="M301 443q-79 0 -115.5 -72.5t-36.5 -182.5q0 -129 99 -129q77 0 118.5 73t41.5 184q0 127 -107 127zM449 449q30 -46 30 -129t-25.5 -157t-81 -121.5t-133.5 -47.5t-119 50.5t-41 141.5q0 324 243 325l-73 98l-107 -61l-29 40l110 63q-59 62 -71 72l52 35l71 -77l109 58
l29 -38l-110 -58q104 -128 146 -194z" />
    <glyph glyph-name="ntilde" unicode="&#xf1;" horiz-adv-x="499" 
d="M302 446q-63 0 -116 -49l-55 -397h-67l70 500h43l4 -49q23 18 37.5 28t44.5 20.5t62 10.5q55 0 89.5 -33t34.5 -95q0 -17 -3 -35l-48 -347h-67q48 347 48 359q0 87 -77 87zM373.5 579q-17.5 0 -65.5 27.5t-60 27.5t-26.5 -9.5t-31.5 -28.5l-25 33q18 24 47 47t46.5 23
t65.5 -27.5t60 -27.5t26.5 9.5t31.5 28.5l26 -26l-1 -7q-18 -24 -47 -47t-46.5 -23z" />
    <glyph glyph-name="ograve" unicode="&#xf2;" horiz-adv-x="466" 
d="M274 445q-79 0 -117 -71t-38 -159.5t23 -122t76 -33.5q81 0 121 66.5t40 155.5t-25.5 126.5t-79.5 37.5zM212 -6q-162 0 -162 205q0 134 62 222.5t171 88.5q80 0 122.5 -53t42.5 -158q0 -130 -61.5 -217.5t-174.5 -87.5zM331 592l-56 -21l-99 132l73 30z" />
    <glyph glyph-name="oacute" unicode="&#xf3;" horiz-adv-x="466" 
d="M274 445q-79 0 -117 -71t-38 -159.5t23 -122t76 -33.5q81 0 121 66.5t40 155.5t-25.5 126.5t-79.5 37.5zM212 -6q-162 0 -162 205q0 134 62 222.5t171 88.5q80 0 122.5 -53t42.5 -158q0 -130 -61.5 -217.5t-174.5 -87.5zM283 571l-50 21l122 141l63 -30z" />
    <glyph glyph-name="ocircumflex" unicode="&#xf4;" horiz-adv-x="466" 
d="M274 445q-79 0 -117 -71t-38 -159.5t23 -122t76 -33.5q81 0 121 66.5t40 155.5t-25.5 126.5t-79.5 37.5zM212 -6q-162 0 -162 205q0 134 62 222.5t171 88.5q80 0 122.5 -53t42.5 -158q0 -130 -61.5 -217.5t-174.5 -87.5zM292 712h43l108 -100l-21 -29l-117 75l-138 -75
l-13 29z" />
    <glyph glyph-name="otilde" unicode="&#xf5;" horiz-adv-x="466" 
d="M274 445q-79 0 -117 -71t-38 -159.5t23 -122t76 -33.5q81 0 121 66.5t40 155.5t-25.5 126.5t-79.5 37.5zM212 -6q-162 0 -162 205q0 134 62 222.5t171 88.5q80 0 122.5 -53t42.5 -158q0 -130 -61.5 -217.5t-174.5 -87.5zM358.5 580q-17.5 0 -65.5 27.5t-60 27.5
t-26.5 -9.5t-31.5 -28.5l-25 33q18 24 47 47t46.5 23t65.5 -27.5t60 -27.5t26.5 9.5t31.5 28.5l26 -26l-1 -7q-18 -24 -47 -47t-46.5 -23z" />
    <glyph glyph-name="odieresis" unicode="&#xf6;" horiz-adv-x="466" 
d="M274 445q-79 0 -117 -71t-38 -159.5t23 -122t76 -33.5q81 0 121 66.5t40 155.5t-25.5 126.5t-79.5 37.5zM212 -6q-162 0 -162 205q0 134 62 222.5t171 88.5q80 0 122.5 -53t42.5 -158q0 -130 -61.5 -217.5t-174.5 -87.5zM184 594l14 106h64l-14 -106h-64zM346 594l14 106
h63l-14 -106h-63z" />
    <glyph glyph-name="divide" unicode="&#xf7;" horiz-adv-x="472" 
d="M257 0h-68l15 106h68zM312 394h-68l15 106h68zM444 228h-388l9 65h388z" />
    <glyph glyph-name="oslash" unicode="&#xf8;" horiz-adv-x="466" 
d="M212 -6q-69 0 -107 34l-63 -71l-41 44l69 78q-20 46 -20 120q0 134 62 222.5t171 88.5q80 0 122 -53l78 88l47 -38l-95 -108q13 -40 13 -100q0 -130 -61.5 -217.5t-174.5 -87.5zM274 447q-41 0 -72 -21t-48 -57q-35 -71 -35 -168q0 -35 5 -65l235 263q-25 48 -85 48z
M379 292q0 25 -3 46l-228 -256q24 -25 70 -25q81 0 121 67t40 168z" />
    <glyph glyph-name="ugrave" unicode="&#xf9;" horiz-adv-x="499" 
d="M284.5 80q40.5 22 63.5 47l52 373h68l-70 -500h-39l-15 59q-80 -65 -153 -65q-51 0 -79.5 32t-28.5 91q0 19 3 40l48 343h67q-50 -360 -50 -375q0 -35 14 -51t46.5 -16t73 22zM337 592l-56 -21l-99 132l73 30z" />
    <glyph glyph-name="uacute" unicode="&#xfa;" horiz-adv-x="499" 
d="M191 -6q-51 0 -79.5 32t-28.5 91q0 19 3 40l48 343h67q-50 -360 -50 -385t14 -41t46.5 -16t73 22t63.5 47l52 373h68l-70 -500h-39l-15 59q-80 -65 -153 -65zM279 571l-50 21l122 141l63 -30z" />
    <glyph glyph-name="ucircumflex" unicode="&#xfb;" horiz-adv-x="499" 
d="M191 -6q-51 0 -79.5 32t-28.5 91q0 19 3 40l48 343h67q-50 -360 -50 -385t14 -41t46.5 -16t73 22t63.5 47l52 373h68l-70 -500h-39l-15 59q-80 -65 -153 -65zM274 712h43l108 -100l-21 -29l-117 75l-138 -75l-13 29z" />
    <glyph glyph-name="udieresis" unicode="&#xfc;" horiz-adv-x="499" 
d="M284.5 80q40.5 22 63.5 47l52 373h68l-70 -500h-39l-15 59q-80 -65 -153 -65q-51 0 -79.5 32t-28.5 91q0 19 3 40l48 343h67q-50 -360 -50 -375q0 -35 14 -51t46.5 -16t73 22zM165 594l14 106h64l-14 -106h-64zM327 594l14 106h63l-14 -106h-63z" />
    <glyph glyph-name="yacute" unicode="&#xfd;" horiz-adv-x="400" 
d="M151 -10l-81 510h77l55 -420l174 420h75l-225 -500q-44 -97 -87 -149.5t-104 -86.5l-19 52q40 23 78 67.5t57 106.5zM256 571l-50 21l122 141l63 -30z" />
    <glyph glyph-name="thorn" unicode="&#xfe;" horiz-adv-x="491" 
d="M343 511q132 0 132 -174q0 -163 -59.5 -253t-162.5 -90q-66 0 -116 50l-39 -280h-67l132 936h68l-36 -250q88 61 148 61zM247 58q81 0 119.5 73.5t38.5 185.5q0 66 -17.5 97.5t-58.5 31.5q-65 0 -144 -67l-38 -272q15 -24 43 -36.5t57 -12.5z" />
    <glyph glyph-name="ydieresis" unicode="&#xff;" horiz-adv-x="400" 
d="M167 596l14 106h64l-14 -106h-64zM329 596l14 106h63l-14 -106h-63zM70 500h77l55 -420l174 420h75l-225 -500q-44 -97 -87 -149.5t-104 -86.5l-19 52q40 23 78 67.5t57 106.5z" />
    <glyph glyph-name="hbar" unicode="&#x127;" horiz-adv-x="500" 
d="M321 510q55 0 89 -33.5t34 -95.5q0 -13 -2 -33l-49 -348h-67q49 347 49 360q0 87 -77 87q-68 0 -118 -48l-56 -399h-68l82 585h-76l8 55h76l8 60h67l-8 -60h142l-8 -55h-142l-17 -125q22 17 34.5 25.5t39 16.5t59.5 8z" />
    <glyph glyph-name="Itilde" unicode="&#x128;" horiz-adv-x="231" 
d="M124 0h-67l98 700h67zM235.5 758q-17.5 0 -65.5 27.5t-60 27.5t-26.5 -9.5t-31.5 -28.5l-25 33q18 24 47 47t46.5 23t65.5 -27.5t60 -27.5t26.5 9.5t31.5 28.5l26 -26l-1 -7q-18 -24 -47 -47t-46.5 -23z" />
    <glyph glyph-name="itilde" unicode="&#x129;" horiz-adv-x="205" 
d="M52 0l70 500h67l-70 -500h-67zM198.5 587q-17.5 0 -65.5 27.5t-60 27.5t-26.5 -9.5t-31.5 -28.5l-25 33q18 24 47 47t46.5 23t65.5 -27.5t60 -27.5t26.5 9.5t31.5 28.5l26 -26l-1 -7q-18 -24 -47 -47t-46.5 -23z" />
    <glyph glyph-name="dotlessi" unicode="&#x131;" horiz-adv-x="206" 
d="M52 0l70 500h67l-70 -500h-67z" />
    <glyph glyph-name="ij" unicode="&#x133;" horiz-adv-x="405" 
d="M45 0l70 500h67l-70 -500h-67zM210 700l-12 -89h-67l12 89h67zM418 700l-13 -88h-67l13 88h67zM188 -204q43 54 60 170l75 534h67l-72 -510q-12 -86 -34.5 -137t-62.5 -92z" />
    <glyph glyph-name="Jcircumflex" unicode="&#x134;" horiz-adv-x="309" 
d="M65 -7q-48 0 -87 11l9 63q42 -9 77 -9q79 0 102 170l58 413h-131l9 59h198l-69 -489q-31 -218 -166 -218zM204 880h43l108 -100l-21 -29l-117 75l-138 -75l-13 29z" />
    <glyph glyph-name="jcircumflex" unicode="&#x135;" horiz-adv-x="200" 
d="M23 -239l-33 35q43 54 60 170l75 534h67l-72 -510q-12 -85 -34.5 -136.5t-62.5 -92.5zM117 712h43l108 -100l-21 -29l-117 75l-138 -75l-13 29z" />
    <glyph glyph-name="kcedilla" unicode="&#x137;" horiz-adv-x="458" 
d="M155 700h67l-58 -412l223 212h85l-218 -203l158 -297h-76l-129 250l-56 -54l-27 -196h-67zM214 -40h64q-7 -49 -22 -80.5t-59 -96.5l-40 31q31 54 41 78t16 68z" />
    <glyph glyph-name="kgreenlandic" unicode="&#x138;" horiz-adv-x="458" 
d="M134 500h67l-30 -212l223 212h85l-218 -203l158 -297h-76l-129 250l-56 -54l-27 -196h-67z" />
    <glyph glyph-name="ldot" unicode="&#x140;" horiz-adv-x="346" 
d="M57 0l98 700h67l-98 -700h-67zM314 247h-67l15 103h67z" />
    <glyph glyph-name="Lslash" unicode="&#x141;" horiz-adv-x="383" 
d="M118 345l-81 -50l10 72l81 49l40 284h68l-35 -252l108 66l-10 -72l-108 -64l-44 -312h193l-9 -66h-261z" />
    <glyph glyph-name="lslash" unicode="&#x142;" horiz-adv-x="273" 
d="M189 415l-58 -415h-63l54 382l-82 -50l10 72l82 49l34 247h63l-30 -215l108 66l-10 -72z" />
    <glyph glyph-name="Nacute" unicode="&#x143;" horiz-adv-x="611" 
d="M504 -1h-74l-224 561l-79 -560h-70l98 700h70l229 -582l81 582h67zM337 752l85 124h76l-106 -124h-55z" />
    <glyph glyph-name="nacute" unicode="&#x144;" horiz-adv-x="499" 
d="M325 510q55 0 89.5 -33t34.5 -95q0 -17 -3 -35l-48 -347h-67q48 347 48 359q0 87 -77 87q-63 0 -116 -49l-55 -397h-67l70 500h43l4 -49q23 18 37.5 28t44.5 20.5t62 10.5zM281 571l-50 21l122 141l63 -30z" />
    <glyph glyph-name="OE" unicode="&#x152;" horiz-adv-x="786" 
d="M265 0q-104 0 -155 71t-51 191q0 174 72 300q36 63 96 100.5t136 37.5h428l-9 -65h-271l-31 -222h249l-9 -67h-249l-40 -281h271l-9 -65h-428zM356 635q-56 0 -100.5 -34t-69.5 -88q-53 -111 -53 -238q0 -95 35.5 -153t106.5 -58h95l80 571h-94z" />
    <glyph glyph-name="oe" unicode="&#x153;" horiz-adv-x="766" 
d="M551 -6q-120 0 -157 95q-66 -95 -180 -95q-162 0 -162 205q0 134 62 222.5t173 88.5t147 -103q64 103 172 103q68 0 105.5 -33t37.5 -96t-61 -106.5t-183 -43.5q-25 0 -55 3q-4 -23 -4 -46q0 -70 34 -100t87 -30q40 0 81 14l46 15l2 -58q-95 -35 -145 -35zM276 445
q-79 0 -117 -71t-38 -159.5t23 -122t76 -33.5q81 0 121 66.5t40 155.5t-25.5 126.5t-79.5 37.5zM510 288q73 0 123.5 23t50.5 70q0 64 -87 64q-102 0 -136 -154q24 -3 49 -3z" />
    <glyph glyph-name="Racute" unicode="&#x154;" horiz-adv-x="543" 
d="M226 328h-56l-46 -328h-67l98 700h182q162 0 162 -141q0 -71 -43 -134t-107 -72q39 -11 53.5 -31.5t30.5 -87.5l56 -234h-71l-56 224q-16 64 -43.5 84t-92.5 20zM324 636h-111l-34 -244h102q63 0 102.5 45t39.5 98.5t-26 77t-73 23.5zM280 752l85 124h76l-106 -124h-55z
" />
    <glyph glyph-name="Rcommaaccent" unicode="&#x156;" horiz-adv-x="543" 
d="M226 328h-56l-46 -328h-67l98 700h182q162 0 162 -141q0 -71 -43 -134t-107 -72q39 -11 53.5 -31.5t30.5 -87.5l56 -234h-71l-56 224q-16 64 -43.5 84t-92.5 20zM324 636h-111l-34 -244h102q63 0 102.5 45t39.5 99q0 100 -99 100zM250 -40h64q-7 -49 -22 -80.5t-59 -96.5
l-40 31q31 54 41 78t16 68z" />
    <glyph glyph-name="rcommaaccent" unicode="&#x157;" horiz-adv-x="334" 
d="M353.5 507.5q7.5 -2.5 11.5 -3.5l-20 -69q-16 6 -43 6q-55 0 -118 -59l-53 -382h-67l70 500h43l3 -59q48 38 79 53.5t59 15.5t35.5 -2.5zM84 -40h64q-7 -49 -22 -80.5t-59 -96.5l-40 31q31 54 41 78t16 68z" />
    <glyph glyph-name="Rcaron" unicode="&#x158;" horiz-adv-x="542" 
d="M328 773h-43l-108 100l21 29l117 -75l138 75l13 -29zM168 327h-56l-46 -328h-67l98 700h182q162 0 162 -141q0 -71 -43 -134t-107 -72q39 -11 53.5 -31.5t30.5 -87.5l56 -234h-71l-56 224q-16 64 -43.5 84t-92.5 20zM266 635h-111l-34 -244h102q63 0 102.5 45t39.5 98
q0 101 -99 101z" />
    <glyph glyph-name="rcaron" unicode="&#x159;" horiz-adv-x="334" 
d="M248 589h-43l-108 100l22 29l116 -75l139 75l12 -29zM308.5 507.5q7.5 -2.5 11.5 -3.5l-20 -69q-16 6 -43 6q-55 0 -118 -59l-53 -382h-67l70 500h43l3 -59q48 38 79 53.5t59 15.5t35.5 -2.5z" />
    <glyph glyph-name="Scaron" unicode="&#x160;" horiz-adv-x="496" 
d="M313 773h-43l-108 100l21 29l117 -75l138 75l13 -29zM387 608q-80 32 -138 32t-90.5 -34.5t-32.5 -81.5t27.5 -74t66.5 -41.5t78 -32t66.5 -54.5t27.5 -95q0 -97 -67.5 -165t-172.5 -68q-52 0 -100 16.5t-78 38.5l30 57q78 -42 148.5 -42t118 39t47.5 103
q0 44 -27.5 72.5t-66 44.5t-77.5 34t-66.5 55.5t-27.5 95.5q0 86 55 144t149 58q72 0 154 -35z" />
    <glyph glyph-name="scaron" unicode="&#x161;" horiz-adv-x="401" 
d="M245 589h-43l-108 100l22 29l116 -75l139 75l12 -29zM14 89q55 -30 108.5 -30t86.5 28t33 76t-70 77q-28 11 -57 23t-49.5 36t-20.5 59q0 70 44 111t109 41t117 -21l6 -3l-21 -64q-23 14 -57.5 18.5t-44.5 4.5q-83 0 -83 -76q0 -21 20 -36.5t49 -27.5t58 -26.5t49 -42.5
t20 -67q0 -79 -52.5 -127t-132.5 -48t-136 39z" />
    <glyph glyph-name="Ydieresis" unicode="&#x178;" horiz-adv-x="497" 
d="M558 700l-261 -385l-44 -315h-68l44 315l-145 385h75l114 -324l212 324h73zM196 816l14 106h64l-14 -106h-64zM358 816l14 106h63l-14 -106h-63z" />
    <glyph glyph-name="Zcaron" unicode="&#x17d;" horiz-adv-x="457" 
d="M319 773h-42l-108 100l21 29l116 -75l139 75l13 -29zM406 0h-395l9 62l368 573h-289l9 65h368l-8 -57l-366 -577h313z" />
    <glyph glyph-name="zcaron" unicode="&#x17e;" horiz-adv-x="371" 
d="M268 589h-42l-109 100l21 29l117 -75l138 75l13 -29zM96 500h276l-8 -60l-249 -375h207l-9 -65h-287l8 60l249 375h-196z" />
    <glyph glyph-name="florin" unicode="&#x192;" horiz-adv-x="279" 
d="M168.5 685.5q39.5 26.5 88.5 26.5t80 -12l-21 -54q-28 5 -55 5t-52 -18t-33 -49l-36 -142h101l-15 -60h-100l-131 -525l-72 -10l135 535h-68l13 60h70l40 156q16 61 55.5 87.5z" />
    <glyph glyph-name="circumflex" unicode="&#x2c6;" horiz-adv-x="441" 
d="M262 820h43l108 -100l-21 -29l-117 75l-138 -75l-13 29z" />
    <glyph glyph-name="caron" unicode="&#x2c7;" horiz-adv-x="397" 
d="M366 690l-146 -147l-99 147l38 41l77 -94l102 94z" />
    <glyph glyph-name="breve" unicode="&#x2d8;" horiz-adv-x="360" 
d="M182 43q32 0 49.5 16t23.5 56h40l-2 -13q-7 -51 -37.5 -79t-80.5 -28q-90 0 -90 84q0 8 4 36h40q-2 -16 -2 -22q0 -50 55 -50z" />
    <glyph glyph-name="dotaccent" unicode="&#x2d9;" horiz-adv-x="221" 
d="M186 705h-59l13 96h59z" />
    <glyph glyph-name="ring" unicode="&#x2da;" horiz-adv-x="358" 
d="M239 772q88 0 88 -86q0 -58 -28 -96t-89 -38q-88 0 -88 86q0 58 28 96t89 38zM215 596q31 0 46 25t15 61q0 46 -42 46q-31 0 -46 -25t-15 -61q0 -46 42 -46z" />
    <glyph glyph-name="ogonek" unicode="&#x2db;" horiz-adv-x="271" 
d="M131 -53.5q-22 -24.5 -22 -56t40 -31.5q14 0 56 12l6 -40q-46 -25 -96 -25q-72 0 -72 61q0 79 85 133h75q-50 -29 -72 -53.5z" />
    <glyph glyph-name="tilde" unicode="&#x2dc;" 
d="M348.5 683q-17.5 0 -65.5 27.5t-60 27.5t-26.5 -9.5t-31.5 -28.5l-25 33q18 24 47 47t46.5 23t65.5 -27.5t60 -27.5t26.5 9.5t31.5 28.5l26 -26l-1 -7q-18 -24 -47 -47t-46.5 -23z" />
    <glyph glyph-name="hungarumlaut" unicode="&#x2dd;" horiz-adv-x="449" 
d="M159 571l-49 21l121 141l63 -30zM308 571l-49 21l122 141l62 -30z" />
    <glyph glyph-name="Delta" unicode="&#x394;" horiz-adv-x="551" 
d="M499 0h-497l305 700h82zM414 77l-77 547l-239 -547h316z" />
    <glyph glyph-name="Delta" unicode="&#x2206;" horiz-adv-x="551" 
d="M499 0h-497l305 700h82zM414 77l-77 547l-239 -547h316z" />
    <glyph glyph-name="Omega" unicode="&#x3a9;" horiz-adv-x="664" 
d="M92 264q0 173 73 304q36 64 96.5 103t136.5 39q104 0 156 -71.5t52 -186t-36.5 -223t-101.5 -164.5h115l-9 -65h-238l9 65q53 20 91 59t58 90q38 98 38 214q0 217 -142 217q-55 0 -99 -35t-70 -90q-54 -116 -54 -241q0 -85 27.5 -144.5t87.5 -69.5l-9 -65h-238l9 65h112
q-64 71 -64 199z" />
    <glyph glyph-name="Omega" unicode="&#x2126;" horiz-adv-x="664" 
d="M92 264q0 173 73 304q36 64 96.5 103t136.5 39q104 0 156 -71.5t52 -186t-36.5 -223t-101.5 -164.5h115l-9 -65h-238l9 65q53 20 91 59t58 90q38 98 38 214q0 217 -142 217q-55 0 -99 -35t-70 -90q-54 -116 -54 -241q0 -85 27.5 -144.5t87.5 -69.5l-9 -65h-238l9 65h112
q-64 71 -64 199z" />
    <glyph glyph-name="pi" unicode="&#x3c0;" horiz-adv-x="525" 
d="M534 544l-9 -65h-87l-68 -479h-66l68 479h-137l-68 -479h-68l68 479h-83l9 65h441z" />
    <glyph glyph-name="endash" unicode="&#x2013;" horiz-adv-x="450" 
d="M465 257h-450l9 65h450z" />
    <glyph glyph-name="emdash" unicode="&#x2014;" horiz-adv-x="720" 
d="M735 257h-720l9 65h720z" />
    <glyph glyph-name="quoteleft" unicode="&#x2018;" horiz-adv-x="241" 
d="M78 510l140 259l47 -17l-116 -267z" />
    <glyph glyph-name="quoteright" unicode="&#x2019;" horiz-adv-x="240" 
d="M249 745l-138 -260l-49 17l118 267z" />
    <glyph glyph-name="quotesinglbase" unicode="&#x201a;" horiz-adv-x="241" 
d="M204 98l-139 -260l-48 17l117 267z" />
    <glyph glyph-name="quotedblleft" unicode="&#x201c;" horiz-adv-x="419" 
d="M78 512l139 255l46 -16l-118 -263zM260 510l136 257l46 -16l-116 -265z" />
    <glyph glyph-name="quotedblright" unicode="&#x201d;" horiz-adv-x="419" 
d="M427 741l-139 -255l-46 16l117 263zM245 743l-136 -257l-46 16l116 265z" />
    <glyph glyph-name="quotedblbase" unicode="&#x201e;" horiz-adv-x="419" 
d="M381 96l-139 -255l-45 16l117 263zM200 98l-137 -257l-45 16l116 265z" />
    <glyph glyph-name="dagger" unicode="&#x2020;" horiz-adv-x="452" 
d="M230 0h-68l70 499h-150l9 65h150l27 186h68l-27 -186h156l-9 -65h-156z" />
    <glyph glyph-name="daggerdbl" unicode="&#x2021;" horiz-adv-x="468" 
d="M257 183l-26 -183h-58l26 183h-160l9 65h160l37 262h-160l9 65h160l25 175h58l-25 -175h169l-9 -65h-169l-37 -262h169l-9 -65h-169z" />
    <glyph glyph-name="bullet" unicode="&#x2022;" horiz-adv-x="423" 
d="M134 167q-28 31 -28 82t39 98t89 47t78 -31t28 -82t-39 -98t-89 -47t-78 31z" />
    <glyph glyph-name="ellipsis" unicode="&#x2026;" horiz-adv-x="665" 
d="M113 0h-67l15 106h67zM357 0h-67l15 106h67zM601 0h-67l15 106h67z" />
    <glyph glyph-name="perthousand" unicode="&#x2030;" horiz-adv-x="953" 
d="M609 688l-464 -687h-70l464 687h70zM507 286q-24 0 -41.5 -18t-25.5 -46q-17 -53 -17 -100q0 -78 49 -78q42 0 63.5 50t21.5 112q0 80 -50 80zM513 336q99 0 99 -122q0 -96 -36.5 -158t-112.5 -62q-95 0 -95 120q0 123 60 186q35 36 85 36zM225 646q-24 0 -42 -18
t-27 -46q-15 -51 -15 -101q0 -77 49 -77q24 0 42 17.5t26 44.5q17 54 17 99q0 81 -50 81zM231 696q99 0 99 -122q0 -92 -36 -156t-113 -64q-95 0 -95 120q0 123 60 186q35 36 85 36zM797 286q-24 0 -41.5 -18t-25.5 -46q-17 -53 -17 -100q0 -78 49 -78q42 0 63.5 50
t21.5 112q0 80 -50 80zM803 336q99 0 99 -122q0 -96 -36.5 -158t-112.5 -62q-95 0 -95 120q0 123 60 186q35 36 85 36z" />
    <glyph glyph-name="guilsinglleft" unicode="&#x2039;" horiz-adv-x="297" 
d="M220 105l-53 -23l-94 214l156 216l45 -23l-123 -191z" />
    <glyph glyph-name="guilsinglright" unicode="&#x203a;" horiz-adv-x="297" 
d="M118 489l54 23l94 -214l-156 -216l-46 23l124 191z" />
    <glyph glyph-name="fraction" unicode="&#x2044;" horiz-adv-x="366" 
d="M501 688l-465 -688h-69l463 688h71z" />
    <glyph glyph-name="Euro" unicode="&#x20ac;" horiz-adv-x="567" 
d="M222 106.5q42 -47.5 109.5 -47.5t163.5 39l10 -52q-86 -52 -184.5 -52t-156.5 66.5t-62 179.5h-75l9 65h70q6 65 14 96h-70l9 65h79q40 115 118.5 179.5t184.5 64.5q68 0 135 -30l-24 -62q-54 27 -127 27t-128 -47.5t-86 -131.5h210l-11 -66h-217q-13 -52 -14 -95h218
l-10 -65h-212q5 -86 47 -133.5z" />
    <glyph glyph-name="trademark" unicode="&#x2122;" horiz-adv-x="617" 
d="M585 418h-49l27 194l-97 -117h-9l-57 117l-27 -194h-48l40 282h51l60 -130l100 130h49zM135 418l32 230h-71l8 52h194l-8 -52h-73l-32 -230h-50z" />
    <glyph glyph-name="arrowleft" unicode="&#x2190;" horiz-adv-x="671" 
d="M253 74l-189 245l253 229l40 -53l-157 -143h454l-10 -75h-454l118 -151z" />
    <glyph glyph-name="arrowup" unicode="&#x2191;" horiz-adv-x="635" 
d="M135 375l255 248l172 -245l-55 -53l-107 152l-71 -505h-68l71 505l-158 -156z" />
    <glyph glyph-name="arrowright" unicode="&#x2192;" horiz-adv-x="671" 
d="M461 555l189 -245l-252 -229l-41 53l157 143h-454l11 75h454l-119 151z" />
    <glyph glyph-name="arrowdown" unicode="&#x2193;" horiz-adv-x="635" 
d="M538 195l-255 -248l-172 245l55 53l107 -152l71 505h68l-71 -505l157 156z" />
    <glyph glyph-name="partialdiff" unicode="&#x2202;" horiz-adv-x="458" 
d="M441 398q0 -196 -79 -310q-29 -41 -77 -67.5t-117 -26.5t-114 45.5t-45 133.5q0 113 63 194t177 81q51 0 116 -12q0 77 -49 143.5t-136 90.5l29 68q99 -26 165.5 -119t66.5 -221zM107.5 98.5q27.5 -33.5 77 -33.5t86.5 30.5t57 78.5q39 95 41 194q-80 15 -125 15
q-69 0 -116.5 -54.5t-47.5 -139.5q0 -57 27.5 -90.5z" />
    <glyph glyph-name="product" unicode="&#x220f;" horiz-adv-x="469" 
d="M49 0h-67l97 700h381l-98 -700h-68l89 635h-245z" />
    <glyph glyph-name="summation" unicode="&#x2211;" horiz-adv-x="414" 
d="M307 0h-325l8 61l223 278l-133 301l8 60h307l-9 -65h-227l129 -292l-221 -278h249z" />
    <glyph glyph-name="minus" unicode="&#x2212;" horiz-adv-x="513" 
d="M468 275h-388l9 65h388z" />
    <glyph glyph-name="radical" unicode="&#x221a;" horiz-adv-x="553" 
d="M174 0l-45 435h-95l9 65h148l45 -425l295 725h74l-336 -800h-95z" />
    <glyph glyph-name="infinity" unicode="&#x221e;" horiz-adv-x="802" 
d="M634 457q62 0 98.5 -34t36.5 -95q0 -84 -49.5 -139.5t-135.5 -55.5t-173 121q-115 -121 -203 -121q-62 0 -98.5 34t-36.5 95q0 84 49.5 139.5t136.5 55.5q49 0 89.5 -32t82.5 -87q117 119 203 119zM308.5 370q-29.5 27 -69.5 27t-70.5 -35.5t-30.5 -79.5q0 -86 82 -86
q58 0 154 98q-36 49 -65.5 76zM525 222q30 -26 72 -26t72.5 33t30.5 78t-21 67.5t-58 22.5q-56 0 -159 -103q33 -46 63 -72z" />
    <glyph glyph-name="integral" unicode="&#x222b;" horiz-adv-x="317" 
d="M240 773q39 31 78 31t69 -11l-13 -49h-44q-62 0 -72 -68l-105 -753q-9 -62 -48.5 -93t-77.5 -31t-68 11l13 49h43q61 0 71 68l107 753q8 62 47 93z" />
    <glyph glyph-name="approxequal" unicode="&#x2248;" horiz-adv-x="513" 
d="M366 336q-42 0 -86.5 29.5t-79 29.5t-82.5 -45l-16 47q22 28 52 46t67 18t81.5 -30t78.5 -30t84 46l17 -29q-45 -82 -116 -82zM337 131q-42 0 -86.5 29.5t-79 29.5t-82.5 -45l-15 47q22 28 52 46t67 18t81 -30t78 -30t84 46l18 -29q-46 -82 -117 -82z" />
    <glyph glyph-name="notequal" unicode="&#x2260;" horiz-adv-x="361" 
d="M407 672l-110 -244h133l-9 -65h-153l-53 -120h189l-9 -66h-210l-79 -176h-63l80 176h-115l9 66h135l54 120h-172l9 65h192l110 244h62z" />
    <glyph glyph-name="lessequal" unicode="&#x2264;" horiz-adv-x="441" 
d="M354 118l-320 224l8 57l383 225l-11 -80l-311 -173l262 -175zM338 0h-351l9 65h351z" />
    <glyph glyph-name="greaterequal" unicode="&#x2265;" horiz-adv-x="441" 
d="M386 346l-383 -224l10 77l312 175l-263 173l12 80l320 -225zM338 0h-351l9 65h351z" />
    <glyph glyph-name="flecha01" unicode="&#x25b7;" horiz-adv-x="598" 
d="M72 -47l94 670l434 -335zM159 96l316 189l-261 203z" />
    <glyph glyph-name="lozenge" unicode="&#x25ca;" horiz-adv-x="489" 
d="M477 352l-231 -353h-55l-131 351l231 350h55zM394 350l-88 267l-163 -265l89 -267z" />
    <glyph glyph-name="_0000" unicode="&#xe000;" horiz-adv-x="0" 
 />
    <glyph glyph-name="CR" unicode="&#xe001;" horiz-adv-x="190" 
 />
    <glyph glyph-name="_0001" unicode="&#xe002;" horiz-adv-x="0" 
 />
    <glyph glyph-name="_0158" unicode="&#xe003;" horiz-adv-x="557" 
 />
    <glyph glyph-name="graveMAY" unicode="&#xe004;" horiz-adv-x="394" 
d="M273 701h-55l-70 124h76z" />
    <glyph glyph-name="acuteMAY" unicode="&#xe005;" horiz-adv-x="394" 
d="M209 701l85 124h76l-106 -124h-55z" />
    <glyph glyph-name="flecha02" unicode="&#xe006;" horiz-adv-x="908" 
d="M72 -47l94 670l758 -343zM152 58l596 229l-532 223z" />
    <glyph glyph-name="Crculo0" unicode="&#xe007;" horiz-adv-x="567" 
d="M247 159l39 277h63l-39 -277h-63zM255 -5q-103 0 -154 72.5t-51 193.5q0 172 72 305q36 65 96.5 104.5t137.5 39.5q104 0 155.5 -72t51.5 -193q0 -173 -73 -305q-37 -65 -97.5 -105t-137.5 -40zM458 583.5q-37 61.5 -111 61.5t-128 -62t-77 -143.5t-23 -171.5t36 -148.5
t108 -58.5t126.5 58t80 140t25.5 172.5t-37 152zM369 565l-12 -89h-67l12 89h67z" />
    <glyph glyph-name="a.salt" unicode="&#xe008;" 
d="M337 299q6 41 6 78t-20.5 52.5t-84.5 15.5t-117 -21l-4 58q79 28 160 28q137 0 137 -132q0 -20 -3 -44l-47 -334h-39l-16 59q-46 -38 -78 -51.5t-80 -13.5t-77 32t-29 88q0 179 255 185h37zM288 236q-123 0 -158 -46q-16 -23 -16 -57.5t15.5 -55t46 -20.5t61.5 16.5
t77 57.5l15 105h-41z" />
    <glyph glyph-name="agrave.salt" unicode="&#xe009;" 
d="M337 299q6 41 6 78t-20.5 52.5t-84.5 15.5t-117 -21l-4 58q79 28 160 28q137 0 137 -132q0 -20 -3 -44l-47 -334h-39l-16 59q-46 -38 -78 -51.5t-80 -13.5t-77 32t-29 88q0 179 255 185h37zM288 236q-123 0 -158 -46q-16 -23 -16 -57.5t15.5 -55t46 -20.5t61.5 16.5
t77 57.5l15 105h-41zM343 592l-56 -21l-99 132l73 30z" />
    <glyph glyph-name="aacute.salt" unicode="&#xe00a;" horiz-adv-x="515" 
d="M330 571l-50 21l122 141l63 -30zM337 299q6 41 6 78t-20.5 52.5t-84.5 15.5t-117 -21l-4 58q79 28 160 28q137 0 137 -132q0 -20 -3 -44l-47 -334h-39l-16 59q-46 -38 -78 -51.5t-80 -13.5t-77 32t-29 88q0 179 255 185h37zM288 236q-123 0 -158 -46q-16 -23 -16 -57.5
t15.5 -55t46 -20.5t61.5 16.5t77 57.5l15 105h-41z" />
    <glyph glyph-name="acircumflex.salt" unicode="&#xe00b;" horiz-adv-x="481" 
d="M280 712h43l108 -100l-21 -29l-117 75l-138 -75l-13 29zM337 299q6 41 6 78t-20.5 52.5t-84.5 15.5t-117 -21l-4 58q79 28 160 28q137 0 137 -132q0 -20 -3 -44l-47 -334h-39l-16 59q-46 -38 -78 -51.5t-80 -13.5t-77 32t-29 88q0 179 255 185h37zM288 236
q-123 0 -158 -46q-16 -23 -16 -57.5t15.5 -55t46 -20.5t61.5 16.5t77 57.5l15 105h-41z" />
    <glyph glyph-name="atilde.salt" unicode="&#xe00c;" horiz-adv-x="494" 
d="M349.5 580q-17.5 0 -65.5 27.5t-60 27.5t-26.5 -9.5t-31.5 -28.5l-25 33q18 24 47 47t46.5 23t65.5 -27.5t60 -27.5t26.5 9.5t31.5 28.5l26 -26l-1 -7q-18 -24 -47 -47t-46.5 -23zM337 299q6 41 6 78t-20.5 52.5t-84.5 15.5t-117 -21l-4 58q79 28 160 28q137 0 137 -132
q0 -20 -3 -44l-47 -334h-39l-16 59q-46 -38 -78 -51.5t-80 -13.5t-77 32t-29 88q0 179 255 185h37zM288 236q-123 0 -158 -46q-16 -23 -16 -57.5t15.5 -55t46 -20.5t61.5 16.5t77 57.5l15 105h-41z" />
    <glyph glyph-name="adieresis.salt" unicode="&#xe00d;" 
d="M172 594l14 106h64l-14 -106h-64zM334 594l14 106h63l-14 -106h-63zM337 299q6 41 6 78t-20.5 52.5t-84.5 15.5t-117 -21l-4 58q79 28 160 28q137 0 137 -132q0 -20 -3 -44l-47 -334h-39l-16 59q-46 -38 -78 -51.5t-80 -13.5t-77 32t-29 88q0 179 255 185h37zM288 236
q-123 0 -158 -46q-16 -23 -16 -57.5t15.5 -55t46 -20.5t61.5 16.5t77 57.5l15 105h-41z" />
    <glyph glyph-name="aring.salt" unicode="&#xe00e;" 
d="M316 772q88 0 88 -86q0 -58 -28 -96t-89 -38q-88 0 -88 86q0 58 28 96t89 38zM292 596q31 0 46 25t15 61q0 46 -42 46q-31 0 -46 -25t-15 -61q0 -46 42 -46zM337 299q6 41 6 78t-20.5 52.5t-84.5 15.5t-117 -21l-4 58q79 28 160 28q137 0 137 -132q0 -20 -3 -44l-47 -334
h-39l-16 59q-46 -38 -78 -51.5t-80 -13.5t-77 32t-29 88q0 179 255 185h37zM288 236q-123 0 -158 -46q-16 -23 -16 -57.5t15.5 -55t46 -20.5t61.5 16.5t77 57.5l15 105h-41z" />
    <glyph glyph-name="e.salt" unicode="&#xe00f;" horiz-adv-x="440" 
d="M423 346q0 -36 -14 -112h-285q-4 -34 -4 -46q0 -70 34 -100t87 -30q35 0 54.5 6t25 7.5t23 7.5t24.5 8l2 -58q-95 -35 -145 -35q-80 0 -126.5 46.5t-46.5 143.5q0 106 53 210q26 51 71.5 83.5t108.5 32.5t100.5 -43.5t37.5 -120.5zM358 341q0 104 -87 104
q-58 0 -90.5 -43t-43.5 -111h217q4 36 4 50z" />
    <glyph glyph-name="ae.salt" unicode="&#xe010;" horiz-adv-x="710" 
d="M693 346q0 -36 -14 -112h-285q-4 -34 -4 -46q0 -70 34 -100t87 -30q35 0 54.5 6t25 7.5t23 7.5t24.5 8l2 -58q-95 -35 -145 -35q-114 0 -154 88q-85 -88 -182 -88q-56 0 -85 32t-29 88q0 98 71 141.5t184 43.5h37q6 41 6 78t-20.5 52.5t-84.5 15.5t-117 -21l-4 58
q79 28 160 28q100 0 127 -72q60 72 146 72q68 0 105.5 -43.5t37.5 -120.5zM288 236q-123 0 -158 -46q-16 -23 -16 -57.5t15.5 -55t46 -20.5t61.5 16.5t77 57.5l15 105h-41zM628 341q0 104 -87 104q-58 0 -90.5 -43t-43.5 -111h217q4 36 4 50z" />
    <glyph glyph-name="egrave.salt" unicode="&#xe011;" horiz-adv-x="440" 
d="M423 346q0 -36 -14 -112h-285q-4 -34 -4 -46q0 -70 34 -100t87 -30q35 0 54.5 6t25 7.5t23 7.5t24.5 8l2 -58q-95 -35 -145 -35q-80 0 -126.5 46.5t-46.5 143.5q0 106 53 210q26 51 71.5 83.5t108.5 32.5t100.5 -43.5t37.5 -120.5zM358 341q0 104 -87 104
q-58 0 -90.5 -43t-43.5 -111h217q4 36 4 50zM316 592l-56 -21l-99 132l73 30z" />
    <glyph glyph-name="eacute.salt" unicode="&#xe012;" horiz-adv-x="441" 
d="M423 346q0 -36 -14 -112h-285q-4 -34 -4 -46q0 -70 34 -100t87 -30q35 0 54.5 6t25 7.5t23 7.5t24.5 8l2 -58q-95 -35 -145 -35q-80 0 -126.5 46.5t-46.5 143.5q0 106 53 210q26 51 71.5 83.5t108.5 32.5t100.5 -43.5t37.5 -120.5zM358 341q0 104 -87 104
q-58 0 -90.5 -43t-43.5 -111h217q4 36 4 50zM289 571l-50 21l122 141l63 -30z" />
    <glyph glyph-name="ecircumflex.salt" unicode="&#xe013;" horiz-adv-x="440" 
d="M423 346q0 -36 -14 -112h-285q-4 -34 -4 -46q0 -70 34 -100t87 -30q35 0 54.5 6t25 7.5t23 7.5t24.5 8l2 -58q-95 -35 -145 -35q-80 0 -126.5 46.5t-46.5 143.5q0 106 53 210q26 51 71.5 83.5t108.5 32.5t100.5 -43.5t37.5 -120.5zM358 341q0 104 -87 104
q-58 0 -90.5 -43t-43.5 -111h217q4 36 4 50zM280 712h43l108 -100l-21 -29l-117 75l-138 -75l-13 29z" />
    <glyph glyph-name="edieresis.salt" unicode="&#xe014;" horiz-adv-x="440" 
d="M423 346q0 -36 -14 -112h-285q-4 -34 -4 -46q0 -70 34 -100t87 -30q35 0 54.5 6t25 7.5t23 7.5t24.5 8l2 -58q-95 -35 -145 -35q-80 0 -126.5 46.5t-46.5 143.5q0 106 53 210q26 51 71.5 83.5t108.5 32.5t100.5 -43.5t37.5 -120.5zM358 341q0 104 -87 104
q-58 0 -90.5 -43t-43.5 -111h217q4 36 4 50zM170 595l14 106h64l-14 -106h-64zM332 595l14 106h63l-14 -106h-63z" />
    <glyph glyph-name="fi" unicode="&#xfb01;" horiz-adv-x="467" 
d="M181.5 683.5q37.5 26.5 76.5 26.5t75 -13l-18 -54q-30 6 -43 6q-63 0 -72 -67l-11 -82h241l-70 -500h-68l61 439h-173l-61 -439h-68l61 440h-69l9 60h70l13 96q9 61 46.5 87.5zM458 699l-13 -89h-68l13 89h68z" />
    <glyph glyph-name="fl" unicode="&#xfb02;" horiz-adv-x="410" 
d="M271 649q-63 0 -72 -67l-11 -82h91l-9 -60h-91l-61 -440h-68l61 440h-69l9 60h70l13 96q9 61 46.5 87.5t85.5 26.5q20 0 68 -10l68 11l-99 -711h-67l90 640q-40 9 -55 9z" />
    </font>
</defs>
</svg>
